<svg width="20" height="20" viewBox="0 0 20 20" fill="none" xmlns="http://www.w3.org/2000/svg">
<path fill-rule="evenodd" clip-rule="evenodd" d="M0 10.4291C0 10.2396 0.0752501 10.058 0.209196 9.92402C0.343142 9.79007 0.524811 9.71482 0.714239 9.71482H17.5603L13.0649 5.22082C12.9985 5.15442 12.9458 5.07558 12.9099 4.98882C12.8739 4.90205 12.8554 4.80906 12.8554 4.71514C12.8554 4.62123 12.8739 4.52823 12.9099 4.44147C12.9458 4.3547 12.9985 4.27587 13.0649 4.20946C13.1313 4.14305 13.2101 4.09038 13.2969 4.05444C13.3837 4.0185 13.4766 4 13.5706 4C13.6645 4 13.7575 4.0185 13.8442 4.05444C13.931 4.09038 14.0098 4.14305 14.0762 4.20946L19.7902 9.92338C19.8567 9.98973 19.9095 10.0685 19.9455 10.1553C19.9815 10.2421 20 10.3351 20 10.4291C20 10.523 19.9815 10.616 19.9455 10.7028C19.9095 10.7896 19.8567 10.8684 19.7902 10.9347L14.0762 16.6487C14.0098 16.7151 13.931 16.7678 13.8442 16.8037C13.7575 16.8396 13.6645 16.8581 13.5706 16.8581C13.4766 16.8581 13.3837 16.8396 13.2969 16.8037C13.2101 16.7678 13.1313 16.7151 13.0649 16.6487C12.9985 16.5823 12.9458 16.5034 12.9099 16.4167C12.8739 16.3299 12.8554 16.2369 12.8554 16.143C12.8554 16.0491 12.8739 15.9561 12.9099 15.8693C12.9458 15.7825 12.9985 15.7037 13.0649 15.6373L17.5603 11.1433H0.714239C0.524811 11.1433 0.343142 11.0681 0.209196 10.9341C0.0752501 10.8002 0 10.6185 0 10.4291Z" fill="#166433"/>
</svg>
