<svg width="50" height="50" viewBox="0 0 50 50" fill="none" xmlns="http://www.w3.org/2000/svg">
<path d="M25 2C12.2979 2 2 12.2979 2 25C2 37.7021 12.2979 48 25 48C37.7021 48 48 37.7021 48 25C48 12.2979 37.7021 2 25 2ZM25 45.7C13.5859 45.7 4.3 36.4141 4.3 25C4.3 13.5859 13.5859 4.3 25 4.3C36.4141 4.3 45.7 13.5859 45.7 25C45.7 36.4141 36.4141 45.7 25 45.7Z" fill="#A67D2D"/>
<path d="M30.6835 12.7433C29.4384 11.6669 27.8338 11.1279 25.8695 11.1279H25.4739C23.4369 11.1279 21.7004 11.7635 20.2629 13.0323C18.6813 14.4477 17.8909 16.339 17.8909 18.7103C17.8909 19.0944 17.999 19.3934 18.2144 19.6088C18.4298 19.802 18.6928 19.8848 19.0048 19.8603C19.2923 19.8603 19.5438 19.7522 19.7593 19.5368C19.9984 19.2983 20.1188 19.0108 20.1188 18.6743C20.1188 17.3333 20.4301 16.1718 21.0534 15.1882C21.9634 13.7998 23.4362 13.1037 25.4739 13.1037C27.1989 13.1037 28.5038 13.5706 29.3909 14.5052C30.133 15.2733 30.5163 16.2662 30.5409 17.4882C30.5409 18.5662 30.3132 19.5253 29.8578 20.3632C29.3303 21.3223 28.3843 22.3757 27.0188 23.5257C25.8688 24.4603 25.0662 25.5022 24.6107 26.6522C24.1546 27.7547 23.9277 29.1569 23.9277 30.8566C23.9277 31.1932 24.0357 31.4677 24.2512 31.6831C24.4666 31.8763 24.7296 31.9706 25.0416 31.9706C25.3291 31.9706 25.5806 31.8763 25.796 31.6831C26.0352 31.4677 26.1556 31.1932 26.1556 30.8566C26.1556 29.1807 26.3587 27.8873 26.7666 26.975C27.173 26.1125 27.9641 25.2025 29.1387 24.2434C30.4328 23.1425 31.3666 22.076 31.9416 21.0449C32.4921 20.0383 32.7681 18.9135 32.7681 17.6669C32.768 15.56 32.0726 13.9178 30.6835 12.7433Z" fill="#A67D2D"/>
<path d="M25 38.8C26.2702 38.8 27.3 37.7703 27.3 36.5C27.3 35.2298 26.2702 34.2 25 34.2C23.7297 34.2 22.7 35.2298 22.7 36.5C22.7 37.7703 23.7297 38.8 25 38.8Z" fill="#A67D2D"/>
</svg>
