<svg width="50" height="50" viewBox="0 0 50 50" fill="none" xmlns="http://www.w3.org/2000/svg">
<path d="M23.463 7.0866C20.9605 7.65078 18.7908 9.88653 18.3502 12.3564C17.6092 16.5085 20.7562 20.2878 24.9451 20.2771C25.5037 20.2771 26.148 20.2241 26.3631 20.1599C26.6636 20.0748 26.7925 20.0748 26.8678 20.1599C26.9214 20.2347 27.4906 21.1926 28.1351 22.3106C28.7797 23.4177 29.8001 25.185 30.4013 26.2176C31.0029 27.2503 31.4971 28.1554 31.4971 28.2405C31.4971 28.315 31.2284 28.517 30.9064 28.6981C30.5841 28.8686 30.3154 29.0388 30.3154 29.0708C30.3154 29.1347 34.6226 30.2737 34.6547 30.2204C34.6977 30.1674 35.7931 26.0366 35.7931 25.9621C35.7931 25.9197 35.5032 26.058 35.138 26.2709C34.7728 26.4944 34.4508 26.6116 34.4078 26.5583C34.3218 26.4732 30.1115 19.2655 29.7892 18.6483C29.6603 18.4248 29.6818 18.3715 29.9717 18.0629C30.4982 17.52 31.0459 16.583 31.3573 15.6888C31.6151 14.9647 31.6474 14.6989 31.6474 13.5808C31.6474 12.4842 31.6045 12.1969 31.3573 11.5261C30.6162 9.43958 29.0158 7.87458 26.9859 7.23565C26.073 6.94827 24.3865 6.87377 23.463 7.08666L23.463 7.0866Z" fill="#166433"/>
<path d="M44.6008 38.1173C45.3592 35.687 44.4906 32.7068 42.5528 31.0938C39.2958 28.3815 34.42 29.1932 32.335 32.7945C32.0557 33.2738 31.78 33.8536 31.7284 34.0698C31.6525 34.3706 31.588 34.4814 31.4759 34.5031C31.3841 34.5121 30.2622 34.5216 28.9633 34.516C27.6737 34.5154 25.6196 34.5079 24.4164 34.5079C23.2133 34.5079 22.1757 34.4794 22.1014 34.4367C22.0362 34.3996 21.9937 34.0679 21.9968 33.7007C22.0091 33.3391 21.9946 33.0232 21.9667 33.0073C21.9109 32.9755 18.7622 36.103 18.7923 36.1575C18.8174 36.2208 21.8788 39.2267 21.9438 39.2637C21.9812 39.2852 22.0052 38.9669 22.0019 38.5472C21.989 38.1217 22.0476 37.7867 22.1157 37.7763C22.2332 37.7453 30.6357 37.7347 31.3364 37.7668C31.5962 37.7682 31.6319 37.8131 31.7566 38.2163C31.9678 38.9398 32.5125 39.8785 33.1383 40.593C33.6417 41.1761 33.8582 41.3368 34.835 41.8957C35.7929 42.444 36.0656 42.5508 36.7751 42.6741C38.969 43.0812 41.1364 42.49 42.7095 41.0667C43.4171 40.4269 44.3253 39.0165 44.6009 38.1172L44.6008 38.1173Z" fill="#166433"/>
<path d="M20.1115 19.9794C19.3704 20.1817 18.3928 20.4479 17.931 20.5756L17.0933 20.7883L17.77 21.1822C18.1458 21.3954 18.4466 21.6189 18.4466 21.6722C18.4466 21.7358 17.3939 23.5882 16.0944 25.8028C14.2041 29.0497 13.7099 29.8164 13.5704 29.7523C13.4736 29.7098 12.8615 29.6566 12.2169 29.6247C10.1227 29.5394 8.60816 30.1144 7.15837 31.5728C6.14859 32.5737 5.65445 33.4573 5.30009 34.9157C5.02079 36.0229 5.02079 36.5552 5.28921 37.6412C6.00878 40.4411 8.03892 42.4001 10.7886 42.911C13.5811 43.4433 16.7066 41.8462 17.9415 39.2807C18.5001 38.1202 18.6611 37.4389 18.6502 36.204C18.6502 34.6283 18.2314 33.4467 17.2111 32.1052L16.674 31.4026L18.5752 28.1342C19.617 26.335 20.6695 24.5145 20.9058 24.0993C21.153 23.6735 21.4 23.3223 21.4538 23.3223C21.518 23.3223 21.8402 23.4925 22.184 23.6947C22.5169 23.897 22.7962 24.0248 22.7962 23.9821C22.7962 23.897 22.0657 21.1822 21.7652 20.1496C21.6792 19.8516 21.5718 19.596 21.5289 19.6066C21.4859 19.6066 20.8522 19.7771 20.1111 19.9794L20.1115 19.9794Z" fill="#166433"/>
</svg>
