<svg width="50" height="50" viewBox="0 0 50 50" fill="none" xmlns="http://www.w3.org/2000/svg">
<path d="M15.4936 22.996C15.817 22.4601 15.644 21.7695 15.1085 21.4461L12.8148 20.0602C12.2789 19.7414 11.584 19.9141 11.2649 20.4454L5.16315 30.5679C4.83977 31.1038 5.01273 31.7988 5.54398 32.1179L7.84193 33.5037C8.37318 33.8271 9.06847 33.6545 9.39186 33.1186L15.2103 23.4657L15.4936 22.996Z" fill="#166433"/>
<path d="M45.3514 30.5678L39.2497 20.4452C38.9309 19.914 38.2357 19.7413 37.6997 20.0601L35.4061 21.4459C34.8702 21.7693 34.6975 22.4599 35.0209 22.9959L35.26 23.39L40.7417 32.4847L41.1226 33.1179C41.446 33.6537 42.1409 33.8264 42.6725 33.503L44.9705 32.1171C45.5017 31.7984 45.6744 31.1031 45.3513 30.5672L45.3514 30.5678Z" fill="#166433"/>
<path d="M27.1746 41.9564C27.1746 41.6818 27.1082 41.4029 26.9711 41.1592C26.8691 40.9732 26.732 40.8006 26.5547 40.6588C26.4926 40.61 26.4262 40.5659 26.3598 40.526C26.1297 40.3886 25.8771 40.3092 25.6204 40.2959C25.6293 40.3357 25.6294 40.3756 25.6294 40.4154V40.4775C25.6071 41.0974 25.4036 41.6599 25.0317 42.1247L23.4509 44.0864C23.3091 44.2633 23.1322 44.4317 22.9416 44.5688C22.8795 44.6176 22.8131 44.6618 22.7424 44.7016C22.8264 44.8168 22.928 44.9274 23.0432 45.0204C23.7604 45.6004 24.81 45.4852 25.3857 44.7637L26.1517 43.8161L26.8071 43.0013C26.9887 42.7799 27.0993 42.5185 27.1481 42.2529C27.1657 42.1556 27.1746 42.0537 27.1746 41.9564L27.1746 41.9564Z" fill="#166433"/>
<path d="M24.3362 41.5752C24.5931 41.2518 24.7303 40.8666 24.7435 40.4771V40.415C24.7435 39.8748 24.5045 39.339 24.0529 38.9714C23.7162 38.7011 23.3088 38.5683 22.9061 38.564C22.8971 38.7101 22.8752 38.8429 22.8529 38.967C22.751 39.401 22.5694 39.7642 22.3084 40.0873L20.4354 42.4165C20.3335 42.5403 20.2053 42.6911 20.0323 42.8193C19.9038 42.9255 19.7624 43.0228 19.616 43.0982C19.7312 43.3681 19.9125 43.6161 20.1562 43.811C20.8292 44.3605 21.7679 44.3472 22.4276 43.8469C22.5515 43.7582 22.6624 43.652 22.7597 43.5281L24.3362 41.5752Z" fill="#166433"/>
<path d="M19.7444 41.8638L21.6174 39.5346C21.799 39.3088 21.9185 39.0652 21.9803 38.8038C22.0069 38.6624 22.0291 38.5249 22.0291 38.3788C22.0291 37.8386 21.7854 37.2984 21.3338 36.9309C20.953 36.6254 20.4882 36.4926 20.0366 36.5281C20.0542 36.6121 20.0589 36.6962 20.0632 36.7805C20.0987 37.3781 19.8995 37.9847 19.5097 38.4761L18.0308 40.3139C17.7121 40.7167 17.2914 41.0002 16.8043 41.142C16.7777 41.151 16.7512 41.1596 16.7203 41.1686C16.6539 41.1862 16.5918 41.1995 16.5254 41.2127C16.6227 41.567 16.8309 41.8947 17.1407 42.147C17.8446 42.7138 18.8234 42.6829 19.4831 42.1248C19.5804 42.0541 19.6647 41.9611 19.7444 41.8638L19.7444 41.8638Z" fill="#166433"/>
<path d="M17.3399 39.7605L18.8188 37.9227C19.0801 37.595 19.1996 37.2009 19.1774 36.8157C19.1598 36.3599 18.9473 35.9169 18.5665 35.6068L18.4426 35.5095C17.7341 34.9384 16.7024 35.049 16.1314 35.7576L14.8029 37.4048L14.6525 37.595C14.0857 38.3036 14.1963 39.3395 14.9048 39.9109L15.0287 40.0085C15.4537 40.3538 15.9986 40.4468 16.4899 40.314V40.3097C16.813 40.2297 17.1141 40.0437 17.3399 39.7605L17.3399 39.7605Z" fill="#166433"/>
<path d="M34.4586 23.7757L33.9492 24.0194C33.4223 24.276 32.8157 24.3026 32.2665 24.0947L27.5202 22.3101C26.6257 21.9691 25.6515 21.9073 24.7172 22.1198L23.1055 22.4874C22.9063 22.5316 22.7071 22.5893 22.5122 22.6511C21.0377 23.1339 19.7713 24.1167 18.9389 25.4408L17.3405 27.9825C17.0038 28.5094 17.1589 29.209 17.6815 29.5543C18.2041 29.8953 18.8018 30.0633 19.3995 30.0633C20.037 30.0633 20.6701 29.8731 21.2103 29.4922L24.9477 26.8533H24.952L32.8427 30.8651L37.8065 35.2223C38.1783 33.8185 39.1568 33.1146 39.8833 32.7736L34.5031 23.8465L34.4586 23.7757Z" fill="#166433"/>
<path d="M27.4933 43.5637L26.9488 44.2368L27.914 44.7507C28.928 45.2909 30.1545 45.0562 30.9029 44.246L27.9539 42.6828C27.8609 43.0059 27.7012 43.307 27.4933 43.5637L27.4933 43.5637Z" fill="#166433"/>
<path d="M38.0626 36.0673C37.9786 36.0938 37.8943 36.1071 37.8059 36.1071C37.5934 36.1071 37.3853 36.0317 37.2216 35.8856L32.3417 31.6038L25.0225 27.8844L21.7192 30.2136C21.0418 30.6964 20.2357 30.9487 19.3989 30.9487C18.6153 30.9487 17.8537 30.7229 17.1983 30.2933C16.2682 29.6824 16.0026 28.4336 16.5916 27.5036L18.19 24.9709C18.7701 24.0456 19.5407 23.2662 20.4395 22.673C19.8817 22.7175 19.3282 22.8191 18.7923 22.9784L17.1584 23.4655H16.2417L10.6536 32.7334L10.6447 32.7467L12.6903 34.0306L14.3066 36.6121L15.4401 35.1997C15.9229 34.6017 16.6444 34.261 17.4107 34.261C17.9864 34.261 18.5486 34.4602 19.0004 34.8188L19.1156 34.9118C19.3769 35.1243 19.5938 35.3856 19.7531 35.6691C19.8903 35.6469 20.0367 35.6383 20.1781 35.6383C20.798 35.6383 21.4047 35.8508 21.8874 36.2406C22.3522 36.6214 22.6756 37.1218 22.8217 37.6796H22.8924C23.5123 37.6796 24.1232 37.8921 24.606 38.2819C24.9825 38.5873 25.2658 38.9728 25.4341 39.4065C25.4607 39.4021 25.4873 39.4021 25.5095 39.4021C25.97 39.4021 26.4216 39.5306 26.82 39.7697C26.913 39.8271 27.0103 39.8936 27.1032 39.9646C27.3645 40.1771 27.5814 40.4341 27.7454 40.7349C27.9137 41.0311 28.0153 41.3678 28.0465 41.7264L31.3941 43.5021L31.4737 43.5462C31.7218 43.679 31.9831 43.7454 32.2444 43.7501C32.8998 43.7766 33.5416 43.4313 33.8693 42.8158C33.9401 42.6873 33.9889 42.5501 34.0244 42.4173H34.0154C33.8737 42.4173 33.7319 42.3864 33.5991 42.3154L28.5512 39.6409C28.4008 39.5612 28.3122 39.4062 28.3122 39.2468C28.3122 39.1761 28.3298 39.1053 28.3653 39.0386C28.4805 38.8261 28.7505 38.7421 28.963 38.857L34.0152 41.5315L34.2542 41.6553C34.4445 41.7573 34.6394 41.8237 34.8386 41.8546C35.6444 41.9963 36.4814 41.6109 36.8842 40.8495C37.0214 40.5882 37.0924 40.3136 37.1057 40.039C37.0569 40.048 37.0038 40.0523 36.9506 40.0523C36.9108 40.0523 36.871 40.048 36.8311 40.0434C36.4725 39.9946 36.1405 39.884 35.8347 39.7113L30.6191 36.7981C30.473 36.7184 30.389 36.5679 30.389 36.4083C30.389 36.3375 30.4066 36.2622 30.4464 36.1914C30.566 35.9789 30.8362 35.9036 31.0487 36.0231L36.2736 38.941C36.4904 39.0648 36.7208 39.1358 36.9509 39.1667C37.2477 39.2066 37.5486 39.18 37.8278 39.0827C38.275 38.9366 38.6692 38.6312 38.9171 38.1883C39.3866 37.3469 39.214 36.6164 38.4566 35.8236C38.3504 35.9345 38.2172 36.0231 38.0625 36.0676L38.0626 36.0673Z" fill="#166433"/>
<path d="M25.2573 20.3037C28.1619 19.6924 30.5973 17.7178 31.9347 15.0344C32.6476 13.6173 33.0506 11.9923 33.0506 10.2787C33.0506 8.37014 32.8869 6.81593 32.5811 5.55389C30.6285 4.58433 28.0689 4 25.2572 4C22.4456 4 19.886 4.58438 17.9333 5.55421C17.6279 6.81625 17.4639 8.37046 17.4639 10.279C17.4639 11.9926 17.8669 13.6176 18.5798 15.0347C19.9172 17.7178 22.3526 19.6927 25.2572 20.3037H25.2573ZM21.104 11.2351C21.3653 10.9738 21.7859 10.9738 22.0426 11.2351L24.0351 13.2233L29.3575 7.90094C29.6145 7.63963 30.0348 7.63963 30.2961 7.90094C30.5531 8.15761 30.5531 8.57829 30.2961 8.83958L24.5045 14.6315C24.376 14.7553 24.208 14.8264 24.0351 14.8264C23.8581 14.8264 23.6897 14.7556 23.5612 14.6315L21.1039 12.1738C20.8469 11.9128 20.8469 11.4921 21.1039 11.2352L21.104 11.2351Z" fill="#166433"/>
</svg>
