<svg width="50" height="50" viewBox="0 0 50 50" fill="none" xmlns="http://www.w3.org/2000/svg">
<path d="M41.8798 41.8814L41.0279 39.3767C39.4283 34.6652 35.0964 31.4542 30.1612 31.2435C29.7269 31.581 29.269 31.871 28.7944 32.1246C28.0869 33.9824 25.7097 34.4857 24.3169 33.0629C22.6691 32.9174 21.1606 32.2664 19.8432 31.2436C14.908 31.4536 10.5773 34.6646 8.9765 39.3768L8.12601 41.8814C7.88014 42.6019 7.99855 43.3958 8.44205 44.0143C8.88413 44.6332 9.59946 45 10.3603 45H39.6444C40.405 45 41.1204 44.6333 41.5626 44.0143C42.0059 43.3958 42.1243 42.6019 41.8798 41.8814Z" fill="#166433"/>
<path d="M28.2626 29.3371C31.1276 27.3234 33.1314 22.8763 33.1314 18.577C33.1314 6.35839 16.8743 6.37137 16.8743 18.577C16.8743 23.8023 19.8329 29.2377 23.7031 30.2638C24.0763 29.2064 25.075 28.4418 26.2585 28.4418C27.0544 28.4417 27.7645 28.7908 28.2626 29.3371Z" fill="#166433"/>
<path d="M13.307 23.6781C13.7101 25.2613 15.9067 24.8257 15.9067 23.3594C15.9067 17.4826 16.1876 16.9338 15.4008 16.2959C17.2019 5.19772 32.7166 5.28096 34.6049 16.2972C33.8193 16.9371 34.1004 17.4832 34.1004 23.3594C34.1004 23.8191 34.3474 24.2048 34.7024 24.4441C34.7024 29.0159 32.8479 28.7486 27.2714 30.2267C26.4093 29.2909 24.8694 29.9001 24.8694 31.1623C24.8694 32.743 27.1349 33.1129 27.5745 31.5239C32.0766 30.3301 36.034 29.9536 36.034 25.4539V24.5305C36.3682 24.3575 36.6048 24.0507 36.6998 23.6781C41.0395 23.5897 41.0408 17.086 36.6998 16.9975C36.61 16.6425 36.389 16.3525 36.0782 16.1756C36.1901 14.8439 35.9157 13.0935 35.1522 11.4035C29.8426 0.447094 14.16 4.73404 13.9144 15.3524C13.8806 15.712 13.9079 15.9669 13.9286 16.1756C13.6178 16.3525 13.3968 16.6425 13.307 16.9975C11.489 17.0326 10.0233 18.5119 10.0233 20.3379C10.0233 22.1637 11.489 23.6429 13.307 23.6781Z" fill="#166433"/>
</svg>
