<svg width="50" height="50" viewBox="0 0 50 50" fill="none" xmlns="http://www.w3.org/2000/svg">
<path d="M24.9917 42.4644C24.3435 42.4755 23.7174 42.2292 23.2509 41.7791C22.7841 41.3293 22.5148 40.7124 22.5023 40.0643C22.5001 39.9666 22.5374 39.8717 22.6058 39.8017C22.6742 39.7319 22.7679 39.6923 22.8658 39.6923H27.0841C27.1817 39.6923 27.2755 39.7317 27.3438 39.8014C27.4122 39.8712 27.4499 39.9655 27.4479 40.0634C27.4317 40.7046 27.1661 41.3146 26.7071 41.7626C26.2481 42.211 25.6323 42.4624 24.9906 42.4632L24.9917 42.4644ZM23.2771 40.4214C23.4054 40.9289 23.7542 41.3524 24.2277 41.5759C24.7012 41.7994 25.2498 41.7994 25.723 41.5759C26.1965 41.3525 26.5453 40.9289 26.6737 40.4214H23.2771Z" fill="#166433"/>
<path d="M29.4802 35.8944V39.0325C29.4811 39.4008 29.3354 39.7541 29.0754 40.0147C28.8156 40.2753 28.4627 40.4217 28.0947 40.4217H21.8544C21.4859 40.4217 21.1327 40.2753 20.872 40.0149C20.6117 39.7543 20.4652 39.4011 20.4652 39.0325V35.8762C20.4951 35.8863 20.5255 35.8949 20.5562 35.9016C20.8475 35.9753 21.1466 36.0118 21.4471 36.0107H28.6035C28.8493 36.0113 29.0946 35.9845 29.3345 35.9309C29.3864 35.9195 29.433 35.9089 29.4805 35.8944L29.4802 35.8944Z" fill="#166433"/>
<path d="M22.5338 11.7668C21.8368 11.7674 21.1844 12.1098 20.7882 12.6831C20.7313 12.7629 20.6451 12.8165 20.5485 12.8324C19.865 12.9415 19.243 13.2914 18.7949 13.8188C18.3468 14.3464 18.1018 15.0166 18.1046 15.7088C18.1032 15.8439 18.113 15.9789 18.1339 16.1123C18.1585 16.2953 18.0432 16.4683 17.8649 16.516C17.0259 16.7353 16.3284 17.3168 15.9612 18.1022C15.5943 18.888 15.596 19.7962 15.966 20.5805C16.3359 21.3645 17.0358 21.9435 17.8755 22.1597C18.0575 22.2065 18.1733 22.3851 18.1412 22.5704C18.0265 23.2894 18.1833 24.0255 18.5815 24.6351C18.9793 25.245 19.5901 25.6845 20.2946 25.8687C20.411 25.8968 20.5053 25.9817 20.5457 26.0941C20.7815 26.7197 21.2979 27.1976 21.9397 27.3843C22.5817 27.5712 23.274 27.4451 23.8086 27.0439C24.3435 26.6429 24.6582 26.0134 24.6584 25.3449V13.8906C24.6576 13.3276 24.4335 12.7877 24.0351 12.3895C23.6369 11.9913 23.0967 11.7673 22.5337 11.767L22.5338 11.7668ZM22.9629 18.9961C22.6814 19.1783 22.4892 19.4696 22.4322 19.7997C22.4247 20.0835 22.6208 20.3778 23.0249 20.6797C23.1856 20.8002 23.2182 21.0282 23.0977 21.1889C23.0277 21.2807 22.9186 21.3346 22.8028 21.3343C22.7241 21.3348 22.6474 21.3092 22.5846 21.2617C21.9847 20.8108 21.6867 20.3089 21.7049 19.7782C21.7303 18.9492 22.5299 18.4146 22.5626 18.389H22.5629C22.7319 18.2799 22.9571 18.3267 23.0687 18.4944C23.1775 18.6621 23.1301 18.8864 22.963 18.9961L22.9629 18.9961ZM19.9524 14.4761C20.0681 14.3131 20.2939 14.2741 20.4577 14.389C20.7297 14.5877 21.0729 14.663 21.4032 14.5963C21.6686 14.4981 21.8723 14.2071 22.0073 13.7235C22.0274 13.6242 22.0877 13.538 22.1741 13.4852C22.2604 13.4325 22.3647 13.4183 22.4621 13.4456C22.5595 13.473 22.6409 13.5397 22.687 13.6298C22.7333 13.7196 22.74 13.8248 22.7054 13.9197C22.5017 14.6471 22.1451 15.1052 21.6398 15.2796V15.2799C21.4922 15.3346 21.3357 15.3616 21.178 15.3597C20.7704 15.3449 20.3753 15.2135 20.0396 14.9816C19.8764 14.8658 19.8373 14.6401 19.9523 14.476L19.9524 14.4761ZM18.9161 19.7598H18.9158C18.8831 19.7713 18.8488 19.7774 18.8142 19.778C18.653 19.7763 18.5115 19.6706 18.4646 19.5163C18.4367 19.4242 18.447 19.3246 18.4928 19.24C18.5386 19.1552 18.6164 19.0924 18.7088 19.0654C19.0316 18.9722 19.3006 18.7478 19.4504 18.4471C19.5414 18.1817 19.4359 17.8399 19.1376 17.4362C19.0182 17.2735 19.0534 17.0447 19.216 16.9253C19.3787 16.8059 19.6072 16.8408 19.7269 17.0035C20.1703 17.6106 20.312 18.1781 20.1415 18.6835H20.1412C19.9102 19.2047 19.4624 19.5981 18.9158 19.7599L18.9161 19.7598ZM20.8142 24.0361V24.0363C20.7883 24.0355 20.7626 24.0333 20.7375 24.0288C19.9998 23.8689 19.5246 23.5416 19.312 23.0469V23.0472C19.1387 22.5045 19.2118 21.9133 19.512 21.4289C19.6183 21.2582 19.843 21.2063 20.0137 21.3126C20.1845 21.4192 20.2366 21.6438 20.1301 21.8145C19.9504 22.0975 19.8974 22.4432 19.9847 22.7671C20.0938 23.0252 20.3993 23.2108 20.8904 23.3162C21.0743 23.3536 21.1996 23.5244 21.1797 23.711C21.1599 23.8974 21.0017 24.0383 20.8142 24.0364L20.8142 24.0361ZM23.0101 25.3851V25.3854C22.6878 25.6547 22.2771 25.7947 21.8574 25.778C21.7098 25.7791 21.5622 25.7657 21.4174 25.7381C21.2204 25.6957 21.0951 25.502 21.1376 25.3051C21.1797 25.1083 21.3736 24.9831 21.5703 25.0252C21.8979 25.1014 22.2419 25.0369 22.5195 24.8472C22.7525 24.5545 22.8334 24.1689 22.7377 23.807C22.7254 23.7122 22.7517 23.6159 22.8103 23.5403C22.8691 23.4644 22.9556 23.4153 23.0508 23.4036C23.2494 23.3776 23.4316 23.5177 23.4581 23.7164C23.5555 24.4616 23.4029 25.0252 23.01 25.3854L23.0101 25.3851Z" fill="#166433"/>
<path d="M32.1781 16.5158C31.9992 16.4689 31.8848 16.2948 31.9125 16.1121C32.0123 15.3593 31.8168 14.597 31.3664 13.9854C30.9164 13.3738 30.2464 12.9603 29.4981 12.8322C29.3999 12.8174 29.3123 12.7636 29.2543 12.683C28.9091 12.1835 28.3661 11.856 27.7632 11.7831C27.1603 11.7102 26.5551 11.8992 26.1006 12.3018C25.646 12.7047 25.386 13.2831 25.386 13.8902V25.3445C25.3863 26.013 25.701 26.6425 26.2358 27.0434C26.7704 27.4447 27.4627 27.5708 28.1047 27.3838C28.7464 27.1972 29.2629 26.7192 29.4987 26.0937C29.5392 25.9813 29.6335 25.8964 29.7498 25.8683C30.4541 25.6841 31.0645 25.2441 31.4625 24.6345C31.8603 24.0248 32.0171 23.289 31.9022 22.57C31.8698 22.3837 31.9876 22.2042 32.1712 22.1593C33.0104 21.9422 33.7097 21.363 34.0791 20.5787C34.4485 19.7944 34.4496 18.8865 34.0824 18.1013C33.7152 17.3158 33.0174 16.7349 32.1787 16.5156L32.1781 16.5158ZM27.5891 13.4723L27.5888 13.472C27.7816 13.4188 27.9811 13.5309 28.0358 13.7232C28.1739 14.2067 28.3776 14.5014 28.6435 14.5959C28.9725 14.6562 29.3117 14.5814 29.5849 14.3886C29.7487 14.272 29.9758 14.3102 30.0925 14.4737C30.2091 14.6375 30.1709 14.8646 30.0071 14.9813C29.67 15.2129 29.2741 15.3443 28.8654 15.3593C28.7077 15.3607 28.5512 15.3337 28.4033 15.2795C27.8977 15.1049 27.5419 14.6467 27.3383 13.9196L27.338 13.9193C27.2845 13.7268 27.3966 13.5268 27.5889 13.4721L27.5891 13.4723ZM27.0799 18.996V18.9958C26.9992 18.9433 26.9432 18.8604 26.9242 18.7661C26.9049 18.6718 26.9245 18.5739 26.9783 18.4941C27.0883 18.3267 27.3123 18.2798 27.4803 18.3886C27.5126 18.414 28.3126 18.9486 28.3386 19.7778C28.3564 20.3088 28.0581 20.8105 27.4586 21.2614C27.3961 21.3094 27.319 21.3351 27.2404 21.3339C27.1257 21.3348 27.0174 21.2809 26.9493 21.1886C26.8288 21.0279 26.8615 20.7999 27.0222 20.6794C27.4223 20.3775 27.6218 20.0831 27.6148 19.7994C27.5501 19.4712 27.3575 19.1822 27.0796 18.9958L27.0799 18.996ZM28.6287 25.7374C28.4825 25.7647 28.3341 25.7781 28.1854 25.7773C27.7666 25.7938 27.357 25.6537 27.0358 25.3844C26.6399 25.0245 26.4903 24.4645 26.5849 23.7154C26.61 23.5156 26.7925 23.3741 26.9923 23.3992C27.1921 23.4241 27.3338 23.6065 27.3087 23.8063C27.2105 24.1674 27.2903 24.5538 27.5235 24.8465C27.8014 25.0342 28.1449 25.0987 28.4722 25.0245C28.6692 24.9812 28.8636 25.106 28.9069 25.3027C28.9498 25.4996 28.8254 25.6941 28.6287 25.7374L28.6287 25.7374ZM30.7314 23.0463C30.5241 23.5407 30.0442 23.868 29.3093 24.0281C29.2831 24.0323 29.2563 24.0345 29.2298 24.0354C29.042 24.0379 28.8835 23.897 28.8637 23.7103C28.8439 23.5236 28.9692 23.3526 29.1531 23.3155C29.5258 23.2865 29.8629 23.0828 30.0621 22.7664C30.1467 22.4408 30.0928 22.0945 29.9134 21.8099C29.8183 21.64 29.8741 21.4254 30.0398 21.323C30.2053 21.2206 30.4223 21.2669 30.5317 21.4282C30.8317 21.9123 30.9048 22.5036 30.7315 23.0462L30.7314 23.0463ZM31.5782 19.5153L31.5785 19.5155C31.5333 19.6704 31.3913 19.777 31.2297 19.7773C31.1949 19.7761 31.1605 19.77 31.1276 19.7591C30.581 19.597 30.1332 19.2036 29.9022 18.6827C29.7353 18.1771 29.8732 17.6098 30.3171 17.0027C30.4365 16.84 30.6653 16.8049 30.828 16.9246C30.9906 17.044 31.0255 17.2728 30.9061 17.4354C30.6075 17.8392 30.5024 18.181 30.5933 18.4463C30.7429 18.7474 31.0119 18.9717 31.335 19.0643C31.5261 19.1226 31.6346 19.3241 31.5777 19.5158L31.5782 19.5153Z" fill="#166433"/>
<path d="M33.2831 10.836C31.0766 8.75589 28.1673 7.58403 25.1353 7.55417C22.1029 7.52432 19.171 8.63846 16.9238 10.6745C14.6769 12.7105 13.2798 15.5187 13.0115 18.5395C12.7433 21.5601 13.6234 24.5705 15.4763 26.9709C16.6306 28.5005 17.5486 30.1944 18.1998 31.9962L18.6979 33.367V33.3673C19.0372 34.2758 19.8011 34.9597 20.7417 35.1962C20.9719 35.2554 21.209 35.2847 21.447 35.2836H28.6035C28.8016 35.2827 28.9991 35.2607 29.1927 35.218C30.1802 35.0129 30.9924 34.3134 31.342 33.3673L31.8325 32.0509C32.0616 31.4289 32.3166 30.8218 32.5853 30.2473V30.247C33.1205 29.0919 33.7812 27.9992 34.5563 26.9889C36.2003 24.8832 37.089 22.2861 37.08 19.6147C37.0767 17.9702 36.7382 16.344 36.0856 14.8345C35.4327 13.3253 34.4793 11.9651 33.2835 10.8364L33.2831 10.836ZM32.659 22.7702C32.6626 22.8612 32.6662 22.9522 32.6662 23.0428V23.0431C32.6676 23.8205 32.4196 24.5783 31.9589 25.2044C31.498 25.8308 30.8487 26.2928 30.1057 26.5231C29.8138 27.1665 29.2935 27.6785 28.6456 27.96C27.9975 28.2412 27.2681 28.2722 26.5988 28.0462C25.9294 27.8205 25.3678 27.354 25.0226 26.7376C24.6775 27.354 24.1158 27.8205 23.4465 28.0462C22.7768 28.2719 22.0475 28.2412 21.3993 27.9597C20.7515 27.6785 20.2311 27.1665 19.939 26.5231C19.1963 26.2929 18.547 25.8308 18.086 25.2044C17.6251 24.5783 17.3773 23.8205 17.3787 23.0431C17.3787 22.9522 17.3824 22.8612 17.3899 22.7705V22.7703C16.4376 22.434 15.6678 21.7175 15.264 20.792C14.8606 19.8663 14.8592 18.8146 15.261 17.888C15.6625 16.9614 16.4309 16.2433 17.3823 15.9048C17.3787 15.8392 17.3787 15.7739 17.3787 15.7083V15.7086C17.3759 14.8696 17.6639 14.056 18.1937 13.4056C18.7236 12.7552 19.4621 12.3082 20.2841 12.1411C20.8703 11.3858 21.7967 10.9751 22.7501 11.0474C23.7035 11.1199 24.557 11.6657 25.0226 12.5008C25.4889 11.6655 26.3426 11.1197 27.2966 11.0471C28.2506 10.9748 29.1772 11.3856 29.764 12.1408C30.5854 12.3088 31.3234 12.7558 31.8524 13.4059C32.3814 14.0563 32.6691 14.8699 32.6664 15.708C32.6664 15.7736 32.6664 15.8389 32.6627 15.9045C33.6139 16.2429 34.382 16.9608 34.7838 17.8869C35.1856 18.813 35.185 19.8643 34.7821 20.7901C34.3795 21.7159 33.6105 22.433 32.659 22.7703L32.659 22.7702Z" fill="#166433"/>
<path d="M30.7396 37.5894H19.2089C19.008 37.5894 18.8453 37.4265 18.8453 37.2258C18.8453 37.025 19.008 36.862 19.2089 36.862H30.7396C30.9405 36.862 31.1032 37.0249 31.1032 37.2258C31.1032 37.4265 30.9405 37.5894 30.7396 37.5894Z" fill="#166433"/>
<path d="M30.7396 39.3694H19.2089C19.008 39.3694 18.8453 39.2064 18.8453 39.0055C18.8453 38.8049 19.008 38.642 19.2089 38.642H30.7396C30.9405 38.642 31.1032 38.8049 31.1032 39.0055C31.1032 39.2064 30.9405 39.3694 30.7396 39.3694Z" fill="#166433"/>
</svg>
