<svg width="50" height="50" viewBox="0 0 50 50" fill="none" xmlns="http://www.w3.org/2000/svg">
<path d="M26.2929 3.0016C27.3353 3.0016 28.2768 3.47461 28.9562 4.23875C29.6265 4.99292 30.0418 6.03306 30.0418 7.17867C30.0418 8.32427 29.6275 9.36439 28.9562 10.1186C28.8343 10.255 28.705 10.383 28.568 10.4991C29.4947 10.0999 30.2582 9.56533 30.8991 8.91655C31.7488 8.05695 32.3907 6.99455 32.9169 5.7796C33.2119 5.09863 33.6317 4.6827 34.0164 4.54246C34.2137 4.47088 34.4068 4.46475 34.5826 4.52408C34.7644 4.58663 34.9163 4.71367 35.0233 4.9068C35.2129 5.25052 35.2522 5.83673 35.0088 6.65629C34.4703 8.50062 33.2847 10.1085 32.1408 11.6608C30.7589 13.5351 29.4392 15.3261 29.4998 17.2562V17.2646C29.5004 17.4426 29.3566 17.5883 29.1786 17.589L23.4583 17.6261H23.4367C23.2588 17.6206 23.1185 17.4713 23.124 17.2933C23.1856 15.3371 21.8581 13.5331 20.4729 11.6495C19.3351 10.1025 18.1595 8.50386 17.6201 6.67208C17.6185 6.6666 17.6162 6.66144 17.6146 6.65596C17.3712 5.83634 17.4105 5.24985 17.6001 4.90647C17.7072 4.71301 17.859 4.58597 18.0409 4.52375C18.2166 4.46377 18.4098 4.4699 18.6071 4.54212C18.9914 4.68238 19.4112 5.09832 19.7065 5.77927C20.2079 6.93652 20.8144 7.95633 21.6057 8.79372C22.256 9.48179 23.0341 10.048 23.9862 10.4684C23.8614 10.3598 23.7434 10.2427 23.6319 10.117C22.9615 9.36281 22.5463 8.32267 22.5463 7.17706C22.5463 6.03146 22.9606 4.99134 23.6319 4.23715C24.3112 3.47298 25.2527 3 26.2952 3L26.2929 3.0016ZM39.0482 15.8138C39.083 15.7074 39.1978 15.6497 39.3039 15.6852C39.4103 15.72 39.468 15.8348 39.4325 15.9409L39.4203 15.9786C39.3348 16.2736 39.3848 16.5809 39.5367 16.8414C39.6908 17.1065 39.951 17.3228 40.2831 17.4325C40.3102 17.4418 40.3279 17.447 40.3347 17.4486C40.4417 17.4795 40.5033 17.5917 40.4727 17.6981C40.4417 17.8052 40.3295 17.8668 40.2231 17.8361C40.1909 17.8268 40.1693 17.82 40.1577 17.8161C39.7295 17.6752 39.3912 17.3915 39.1884 17.0433C38.9827 16.6905 38.9166 16.272 39.0343 15.8654C39.0421 15.8377 39.0475 15.8206 39.0498 15.8138L39.0482 15.8138ZM40.038 31.416C40.1473 31.3938 40.2544 31.4638 40.2769 31.5724C40.2992 31.6817 40.2292 31.7888 40.1206 31.8113C40.1083 31.8136 40.0951 31.8168 40.0822 31.8197C39.7839 31.8929 39.5428 32.0902 39.3935 32.3514C39.241 32.6187 39.1832 32.9524 39.2542 33.2935C39.258 33.3106 39.2619 33.3284 39.2664 33.3458C39.2935 33.4544 39.2271 33.5637 39.1184 33.5899C39.0098 33.6169 38.9005 33.5505 38.8743 33.4419C38.8689 33.4202 38.8644 33.398 38.8589 33.3748C38.7673 32.9327 38.8434 32.4981 39.043 32.1492C39.2455 31.7948 39.5753 31.5276 39.9868 31.4257C40.0039 31.4218 40.0216 31.4173 40.039 31.4141L40.038 31.416ZM27.0202 40.0739C27.0941 40.1571 27.0873 40.2841 27.0041 40.3589C26.9209 40.4328 26.7939 40.426 26.7191 40.3428C26.7136 40.3367 26.7046 40.3273 26.692 40.3144C26.4786 40.0926 26.188 39.9817 25.8869 39.9833C25.5796 39.9849 25.2614 40.1013 25.0009 40.3338C24.9909 40.3422 24.9777 40.3548 24.9615 40.3709C24.8816 40.4479 24.7536 40.4457 24.6759 40.3654C24.5988 40.2854 24.6011 40.1574 24.6813 40.0797C24.6946 40.0675 24.7113 40.052 24.7323 40.0336C25.0689 39.7331 25.4836 39.5822 25.8857 39.5806C26.2948 39.579 26.6908 39.7308 26.9836 40.0352C26.9929 40.0446 27.0045 40.0575 27.0197 40.0752L27.0202 40.0739ZM13.0144 33.1297C12.9796 33.2361 12.8648 33.2938 12.7587 33.2583C12.6523 33.2235 12.5946 33.1087 12.6301 33.0027C12.6378 32.9804 12.6417 32.9672 12.6423 32.9649C12.7278 32.6699 12.6778 32.3626 12.5259 32.1021C12.3718 31.8371 12.1116 31.6207 11.7795 31.5111C11.7524 31.5017 11.7347 31.4966 11.7279 31.495C11.6209 31.464 11.5593 31.3518 11.5899 31.2454C11.6209 31.1384 11.7331 31.0768 11.8395 31.1074C11.8717 31.1168 11.8933 31.1235 11.9049 31.1274C12.3331 31.2683 12.6713 31.552 12.8741 31.9003C13.0798 32.253 13.1459 32.6715 13.0283 33.0782C13.0205 33.1059 13.015 33.123 13.0128 33.1297L13.0144 33.1297ZM12.0246 17.5275C11.9153 17.5498 11.8082 17.4798 11.7856 17.3711C11.7634 17.2618 11.8334 17.1548 11.942 17.1322C11.9543 17.13 11.9675 17.1267 11.9804 17.1238C12.2786 17.0506 12.5198 16.8533 12.6691 16.5921C12.8216 16.3248 12.8793 15.9911 12.8084 15.65C12.8045 15.6329 12.8007 15.6152 12.7962 15.5978C12.7691 15.4891 12.8355 15.3798 12.9442 15.3537C13.0528 15.3266 13.1621 15.393 13.1882 15.5017C13.1937 15.5233 13.1982 15.5455 13.2037 15.5688C13.2953 16.0108 13.2192 16.4454 13.0196 16.7944C12.8171 17.1487 12.4873 17.416 12.0758 17.5179C12.0587 17.5218 12.041 17.5263 12.0236 17.5295L12.0246 17.5275ZM25.0415 8.86963C24.9677 8.78645 24.9745 8.65844 25.0586 8.58396C25.1418 8.51012 25.2698 8.51689 25.3443 8.60105C25.3565 8.61491 25.3652 8.62426 25.3704 8.62942C25.5838 8.85126 25.8744 8.96217 26.1755 8.96056C26.4828 8.95895 26.801 8.84255 27.0615 8.61008V8.60943C27.0786 8.59395 27.0925 8.5817 27.1009 8.57332C27.1808 8.49626 27.3088 8.49851 27.3865 8.5788C27.4636 8.65876 27.4613 8.78677 27.381 8.86447C27.3601 8.88446 27.3433 8.89994 27.3301 8.91155L27.3295 8.9109C26.9928 9.2114 26.5782 9.36231 26.1771 9.36392C25.7679 9.36553 25.372 9.21367 25.0792 8.90929C25.0631 8.8922 25.0498 8.87834 25.0421 8.86931L25.0415 8.86963ZM44.7956 13.8934C45.3163 14.7963 45.3779 15.848 45.0552 16.8186C44.7385 17.7707 44.0527 18.6451 43.0706 19.2174C43.0561 19.2274 43.0396 19.2358 43.0245 19.2429C42.0391 19.8029 40.9435 19.9593 39.9653 19.7575C39.785 19.7204 39.6087 19.6711 39.4375 19.6105C40.2471 20.2153 41.0932 20.6096 41.9766 20.8408C43.1439 21.1468 44.3856 21.1697 45.7024 21.0182C46.4388 20.9334 47.0088 21.0891 47.3226 21.3519C47.4835 21.4876 47.586 21.6524 47.6221 21.8349C47.6592 22.0222 47.6244 22.217 47.5112 22.4056C47.31 22.7393 46.8254 23.065 46.0013 23.2645C45.9967 23.2662 45.9929 23.2668 45.988 23.2684C44.1222 23.7243 42.1369 23.5018 40.2194 23.2868C37.905 23.0272 35.6941 22.779 34.0522 23.7975L34.0461 23.8014C33.892 23.8917 33.6946 23.8398 33.6047 23.686L30.7073 18.7415L30.7011 18.7299C30.6173 18.5729 30.6766 18.3772 30.8343 18.293C32.5584 17.3686 33.4576 15.3176 34.395 13.1767C35.1646 11.4201 35.9597 9.60573 37.274 8.22314C37.2794 8.21702 37.2846 8.20992 37.291 8.20379C37.8788 7.58279 38.4073 7.32389 38.801 7.31712C39.0206 7.31325 39.2063 7.38032 39.3504 7.50672C39.4913 7.62924 39.5832 7.80013 39.6193 8.00681C39.6903 8.40888 39.5394 8.98056 39.097 9.5761C38.3451 10.5891 37.765 11.6239 37.4361 12.7279C37.165 13.6362 37.0634 14.5944 37.1756 15.6308C37.2072 15.4673 37.2504 15.3058 37.3027 15.1461C37.6193 14.194 38.3051 13.3196 39.2872 12.7473C39.3017 12.7373 39.3182 12.7289 39.3333 12.7218C40.3187 12.1618 41.4143 12.0054 42.3925 12.2072C43.394 12.4129 44.2739 12.9923 44.7953 13.8951H44.7959L44.7956 13.8934ZM44.4429 16.616C44.7085 15.8154 44.6608 14.9526 44.2365 14.2177H44.2371L44.2355 14.2145C43.8109 13.481 43.0884 13.009 42.2632 12.8393C41.4313 12.6685 40.4966 12.8023 39.6524 13.2824L39.6463 13.2862V13.2856L39.6441 13.2872C39.6395 13.2904 39.6341 13.2933 39.6286 13.2966C38.7774 13.7879 38.1847 14.5369 37.9145 15.3488C37.6488 16.1494 37.6965 17.0113 38.1202 17.7471L38.1225 17.7509C38.5471 18.4845 39.2697 18.9565 40.0948 19.1261C40.9267 19.297 41.8614 19.1632 42.7056 18.6831L42.7117 18.6792V18.6799L42.7139 18.6782C42.7185 18.675 42.7239 18.6721 42.7294 18.6689C43.5806 18.1775 44.1733 17.4285 44.4435 16.6166L44.4429 16.616ZM31.4267 18.6944L33.9991 23.084C35.7834 22.1387 37.9882 22.386 40.2894 22.6442C42.1521 22.8532 44.0821 23.0695 45.8355 22.641C45.84 22.6404 45.8439 22.6388 45.8487 22.6378C46.4852 22.4837 46.8347 22.2741 46.9566 22.0722C46.9837 22.0284 46.9927 21.9897 46.9866 21.9597C46.9795 21.9242 46.9528 21.8865 46.9073 21.8488C46.7161 21.6885 46.3234 21.5992 45.7755 21.6624C44.3859 21.8227 43.0674 21.7956 41.8142 21.4673C40.5522 21.1369 39.365 20.5042 38.2487 19.4557C37.6871 18.9289 37.3543 18.532 37.1225 18.0728C36.8922 17.6175 36.7726 17.1245 36.6356 16.3964C36.3722 15.0006 36.4599 13.7331 36.8152 12.5437C37.1673 11.3636 37.7822 10.2641 38.5779 9.19229C38.9061 8.75023 39.0238 8.36497 38.9809 8.11924C38.9703 8.05991 38.9509 8.0167 38.9248 7.99381C38.9016 7.97382 38.8632 7.96286 38.8107 7.96383C38.575 7.96834 38.2158 8.1689 37.7592 8.65093C37.7538 8.65641 37.7486 8.66157 37.7422 8.66705C36.5089 9.96453 35.7354 11.7285 34.9873 13.4358C34.0545 15.5651 33.1585 17.6096 31.428 18.6946L31.4267 18.6944ZM44.0409 35.0651C44.0486 35.048 44.058 35.0319 44.0693 35.0164C44.4807 34.2861 44.5245 33.4332 44.2617 32.6414C43.9922 31.8285 43.3989 31.0805 42.5477 30.5891V30.5885C41.6971 30.0977 40.7527 29.9591 39.9127 30.1326C39.0876 30.3028 38.3641 30.7752 37.9398 31.511H37.9392C37.5145 32.2467 37.4668 33.1096 37.7328 33.9098C38.0024 34.7227 38.5956 35.4707 39.4469 35.9621V35.9627C40.2975 36.4534 41.2419 36.5921 42.0818 36.4186C42.8985 36.2506 43.615 35.786 44.0409 35.0651L44.0409 35.0651ZM44.6103 35.3694C44.0879 36.2684 43.2096 36.8456 42.2114 37.0512C41.2255 37.2537 40.1198 37.0945 39.1283 36.5228L39.1238 36.5196V36.5202C38.1323 35.9479 37.4398 35.0686 37.1215 34.1104C37.0638 33.9363 37.0183 33.7589 36.9851 33.5813C36.8664 34.585 36.9474 35.5149 37.1892 36.3964C37.5081 37.5597 38.1081 38.646 38.8981 39.7106C39.3401 40.3062 39.4904 40.8784 39.4204 41.2799C39.3843 41.4863 39.2924 41.6575 39.1515 41.78C39.0074 41.9054 38.8217 41.9735 38.6021 41.9696C38.2084 41.9619 37.6799 41.703 37.0921 41.0829L37.0928 41.0823C35.7637 39.6933 34.9641 37.8628 34.1922 36.0956C33.2617 33.9662 32.3723 31.9317 30.6777 31.0173C30.6722 31.0141 30.6661 31.0112 30.6606 31.008C30.5058 30.9203 30.451 30.7229 30.5387 30.5672L33.3722 25.5859L33.3783 25.5759C33.4722 25.4241 33.6711 25.3773 33.823 25.4711C35.4864 26.5026 37.7128 26.2553 40.0362 25.9973C41.9504 25.7849 43.9289 25.5653 45.7896 26.0196C46.6225 26.2192 47.111 26.5458 47.3128 26.8817C47.4269 27.0704 47.4608 27.2654 47.4237 27.4525C47.3876 27.6349 47.2851 27.8007 47.1242 27.9355C46.8108 28.1982 46.2404 28.3537 45.504 28.2692C44.2497 28.1244 43.0635 28.1399 41.944 28.4062C41.0218 28.6258 40.1419 29.0163 39.3016 29.6311C39.4587 29.5773 39.6205 29.5334 39.7856 29.4993C40.7716 29.2968 41.8772 29.4561 42.8687 30.0277L42.8732 30.031V30.0303C43.8647 30.6026 44.5573 31.4819 44.8756 32.4401C45.1977 33.4084 45.1367 34.4579 44.6183 35.3601C44.616 35.364 44.6137 35.3678 44.6112 35.3717L44.6103 35.3694ZM25.9309 45.9415C24.8885 45.9415 23.947 45.4685 23.2676 44.7043C22.5973 43.9502 22.182 42.91 22.182 41.7644C22.182 40.6188 22.5963 39.5787 23.2676 38.8245C23.3895 38.6881 23.5188 38.5601 23.6558 38.444C22.7291 38.8432 21.9656 39.3778 21.3246 40.0265C20.475 40.8861 19.8331 41.9485 19.3078 43.1635C19.0128 43.8445 18.593 44.2604 18.2083 44.4006C18.011 44.4722 17.8179 44.4783 17.6421 44.419C17.4603 44.3565 17.3084 44.2294 17.2014 44.0363C17.0118 43.6926 16.9725 43.1064 17.2159 42.2868C17.7543 40.4425 18.94 38.8345 20.0839 37.2823C21.4658 35.408 22.7855 33.6169 22.7249 31.6869V31.6785C22.7243 31.5005 22.8681 31.3548 23.0461 31.3541L28.7664 31.317H28.788C28.9659 31.3225 29.1062 31.4718 29.1007 31.6498C29.0391 33.6059 30.3666 35.41 31.7517 37.2936C32.8896 38.8406 34.0652 40.4392 34.6046 42.271C34.6062 42.2765 34.6084 42.2817 34.6101 42.2871C34.8535 43.1068 34.8142 43.6932 34.6246 44.0366C34.5182 44.2301 34.3657 44.3571 34.1838 44.4193C34.0081 44.4793 33.8149 44.4732 33.6176 44.401C33.2333 44.2607 32.8135 43.8448 32.5181 43.1638C32.0168 42.0066 31.4103 40.9868 30.619 40.1494C29.9687 39.4613 29.19 38.8945 28.2378 38.4747C28.3626 38.5833 28.4813 38.701 28.5922 38.8261C29.2625 39.5803 29.6778 40.6204 29.6778 41.766C29.6778 42.9116 29.2635 43.9518 28.5922 44.7059C27.9135 45.4695 26.972 45.9424 25.9289 45.9424V45.944L25.9309 45.9415ZM23.7506 44.2735C24.3107 44.9036 25.082 45.2934 25.9309 45.2934V45.295C26.7792 45.295 27.5502 44.9045 28.1112 44.2742C28.6806 43.6338 29.0317 42.7471 29.0317 41.7644C29.0317 40.7823 28.6796 39.8946 28.1112 39.2546C27.5505 38.6236 26.7792 38.2338 25.9309 38.2338V38.2354C25.082 38.2354 24.3107 38.6252 23.7506 39.2552C23.1812 39.8956 22.8301 40.7823 22.8301 41.765C22.8301 42.7471 23.1822 43.6348 23.7506 44.2748V44.2735ZM28.4569 31.9632L23.3699 31.9964C23.296 34.0141 21.9802 35.7998 20.6057 37.6634C19.4933 39.1727 18.3415 40.7349 17.8354 42.4666V42.4683C17.6468 43.1047 17.6529 43.5168 17.7677 43.7241C17.7922 43.769 17.8199 43.7957 17.8486 43.8057C17.8834 43.8173 17.9312 43.8134 17.9873 43.7925C18.2213 43.707 18.4957 43.412 18.7147 42.9074C19.2715 41.6215 19.9541 40.493 20.8633 39.5731C21.781 38.6455 22.9218 37.9329 24.3888 37.4908C25.1252 37.269 25.6347 37.1787 26.1483 37.2074C26.6574 37.2351 27.1442 37.3783 27.8433 37.6233C29.1846 38.0931 30.2383 38.8034 31.0912 39.7056C31.9362 40.6 32.5811 41.6824 33.1118 42.9073C33.3307 43.412 33.6048 43.7079 33.8392 43.7925C33.8953 43.8134 33.9424 43.817 33.9779 43.8057C34.0062 43.7957 34.034 43.7686 34.0588 43.7241C34.1736 43.5168 34.1797 43.1047 33.9911 42.4682C33.9895 42.4637 33.9888 42.4598 33.9872 42.455C33.482 40.7338 32.3377 39.1794 31.2314 37.6746C29.8539 35.8019 28.531 34.0037 28.4572 31.9637L28.4569 31.9632ZM7.44404 35.0763C7.43082 35.0585 7.42018 35.0392 7.41179 35.0201C6.90558 34.1242 6.84851 33.0849 7.16772 32.1241C7.48273 31.1758 8.16532 30.3043 9.14387 29.7313C9.15934 29.7197 9.17546 29.7104 9.19255 29.703C10.1795 29.1397 11.2781 28.9833 12.2588 29.1851C12.4391 29.2222 12.6155 29.2715 12.7867 29.3322C11.977 28.7282 11.1309 28.3336 10.2475 28.1018C9.08025 27.7958 7.83857 27.7729 6.52177 27.9244C5.78533 28.0092 5.21528 27.8535 4.90154 27.5907C4.74065 27.455 4.63811 27.2902 4.602 27.1077C4.56492 26.9204 4.59974 26.7256 4.71292 26.537C4.91412 26.2033 5.39873 25.8776 6.22287 25.6781C6.22739 25.6765 6.23125 25.6758 6.23609 25.6742C8.10197 25.2183 10.0872 25.4408 12.0047 25.6558C14.3191 25.9154 16.5301 26.1636 18.1719 25.1451L18.178 25.1412C18.3322 25.0509 18.5295 25.1029 18.6194 25.2566L21.5168 30.2011L21.523 30.2127C21.6068 30.3697 21.5475 30.5655 21.3898 30.6496C19.6657 31.574 18.7665 33.625 17.8292 35.7659C17.0595 37.5225 16.2644 39.3369 14.9502 40.7195C14.9447 40.7256 14.9395 40.7327 14.9331 40.7388C14.3453 41.3598 13.8169 41.6187 13.4231 41.6255C13.2036 41.6294 13.0178 41.5623 12.8737 41.4359C12.7328 41.3134 12.6409 41.1425 12.6048 40.9358C12.5339 40.5337 12.6848 39.962 13.1271 39.3665C13.8791 38.3535 14.4591 37.3187 14.788 36.2147C15.0592 35.3064 15.1601 34.3482 15.0485 33.3118C15.0169 33.4753 14.9737 33.6369 14.9215 33.7965C14.6032 34.7547 13.9106 35.634 12.9191 36.2063C12.913 36.2102 12.9059 36.2134 12.8992 36.2169C11.9115 36.7809 10.8121 36.9389 9.83056 36.737C8.83972 36.5329 7.96691 35.9635 7.44392 35.0768L7.44404 35.0763ZM7.78001 32.3266C7.51432 33.1272 7.56205 33.99 7.98637 34.7254C8.41101 35.4603 9.13354 35.9326 9.9593 36.1029C10.7944 36.2748 11.7321 36.139 12.5787 35.6554C12.5832 35.6522 12.5887 35.6493 12.5942 35.646C13.4454 35.1546 14.038 34.4057 14.3083 33.5938C14.5726 32.7987 14.5272 31.9429 14.1103 31.21C14.1071 31.2055 14.1042 31.2 14.1009 31.1955C13.6763 30.4597 12.9531 29.9867 12.128 29.8171C11.2884 29.6446 10.3437 29.7833 9.49308 30.274V30.2734L9.48986 30.275C8.64091 30.7657 8.04924 31.5138 7.77966 32.3266L7.78001 32.3266ZM7.62524 13.5515C8.1492 12.6648 9.02104 12.0954 10.0119 11.8913C11.0005 11.6879 12.1074 11.8491 13.0995 12.4214C14.091 12.9937 14.7835 13.873 15.1018 14.8312C15.1595 15.0053 15.205 15.1827 15.2382 15.3603C15.3568 14.3566 15.2759 13.4267 15.0341 12.5452C14.7152 11.3819 14.1151 10.2956 13.3252 9.23097C12.8831 8.63544 12.7329 8.06316 12.8028 7.66167C12.839 7.45532 12.9309 7.28411 13.0718 7.16158C13.2159 7.03616 13.4016 6.96812 13.6212 6.97199C14.0149 6.97973 14.5433 7.23864 15.1311 7.85866L15.1305 7.8593C16.4596 9.24833 17.2592 11.0788 18.0311 12.846C18.9616 14.9754 19.8509 17.0099 21.5456 17.9243C21.5511 17.9275 21.5572 17.9304 21.5627 17.9336C21.7175 18.0213 21.7723 18.2187 21.6846 18.3744L18.8511 23.3557L18.8449 23.3657C18.7511 23.5175 18.5522 23.5643 18.4003 23.4705C16.7369 22.439 14.5105 22.6863 12.1871 22.9442C10.2728 23.1567 8.29436 23.3763 6.43361 22.922C5.60076 22.7224 5.11227 22.3958 4.91045 22.0598C4.79631 21.8712 4.76245 21.6762 4.79953 21.4891C4.83564 21.3066 4.93818 21.1409 5.09907 21.0061C5.41248 20.7433 5.98285 20.5879 6.7193 20.6724C7.97353 20.8172 9.15975 20.8017 10.2793 20.5354C11.2014 20.3158 12.0813 19.9253 12.9225 19.3104C12.7655 19.3643 12.6036 19.4081 12.4386 19.4423C11.4499 19.6458 10.3431 19.4846 9.35098 18.9122C8.35947 18.3399 7.66694 17.4607 7.34866 16.5024C7.02881 15.5403 7.08684 14.4979 7.59596 13.6002C7.60435 13.5825 7.61434 13.5654 7.62595 13.5502L7.62524 13.5515ZM10.1415 12.5246C9.32088 12.6932 8.60222 13.1611 8.17687 13.8865C8.17365 13.892 8.17139 13.8972 8.16849 13.9026C7.74385 14.6384 7.69612 15.5003 7.96213 16.3009C8.23008 17.1076 8.81562 17.8508 9.65715 18.3425C9.6694 18.3486 9.68165 18.3557 9.69326 18.3635C10.539 18.8465 11.4766 18.9822 12.3104 18.8104C13.1362 18.6401 13.8598 18.1678 14.2834 17.4329C14.708 16.6971 14.7564 15.8343 14.4897 15.0331C14.2202 14.2202 13.6269 13.4722 12.7756 12.9808C11.925 12.4901 10.9807 12.3514 10.1407 12.5239L10.1415 12.5246ZM18.4502 22.7565L20.9655 18.3344C19.2553 17.2614 18.3671 15.2281 17.4394 13.1065C16.6891 11.3886 15.9117 9.60975 14.6645 8.30616L14.6639 8.30551L14.6633 8.30616C14.2064 7.82379 13.8475 7.62357 13.6118 7.61906C13.5596 7.61841 13.5209 7.62905 13.4977 7.64904C13.4706 7.67226 13.4516 7.71514 13.4416 7.77447C13.3984 8.02113 13.517 8.40611 13.8446 8.84752C14.6791 9.9715 15.3146 11.1271 15.6573 12.3769C16.0023 13.635 16.0478 14.9786 15.6989 16.4685C15.5232 17.2182 15.3462 17.7041 15.065 18.1349C14.7855 18.5631 14.4173 18.9139 13.8562 19.3959C12.7783 20.3226 11.6375 20.8797 10.4304 21.167C9.23159 21.452 7.97282 21.4698 6.64694 21.3166C6.09913 21.2534 5.70637 21.3437 5.5152 21.503C5.46974 21.5407 5.44265 21.5794 5.43588 21.6139C5.42976 21.6439 5.43975 21.6826 5.46587 21.7264C5.58839 21.9299 5.94113 22.1407 6.58531 22.2949H6.58692C8.33484 22.7218 10.2572 22.5083 12.1176 22.3019C14.4281 22.0453 16.6468 21.799 18.4511 22.755L18.4502 22.7565ZM28.4733 4.669C27.9133 4.03897 27.142 3.64919 26.2931 3.64919C25.4441 3.64919 24.6728 4.03901 24.1128 4.669C23.5434 5.30935 23.1923 6.19604 23.1923 7.17879C23.1923 8.16088 23.5444 9.04854 24.1128 9.68858C24.6728 10.3186 25.4441 10.7084 26.2931 10.7084C27.142 10.7084 27.9133 10.3186 28.4733 9.68858C29.0427 9.04823 29.3938 8.16154 29.3938 7.17879C29.3938 6.1967 29.0418 5.30904 28.4733 4.669V4.669Z" fill="#166433"/>
<path d="M3.00223 47.5948H3.00112H3V47.5936V47.5925H3.00112H3.00223H3.00112V47.5936V47.5948H3.00223V47.5936V47.5948Z" fill="#166433"/>
<path d="M3.00441 47.5936V47.5948H3.0033V47.5925H3.00441V47.5936V47.5925V47.5936Z" fill="#166433"/>
<path d="M3.00711 47.5936H3.006V47.5948C3.00656 47.5948 3.00711 47.5945 3.00711 47.5936V47.5948H3.006H3.00488V47.5936L3.006 47.5925V47.5936H3.00711Z" fill="#166433"/>
<path d="M3.00832 47.5936V47.5948V47.5936ZM3.00943 47.5936V47.5948H3.00832H3.0072V47.5936H3.00832H3.0072V47.5925H3.00832V47.5936H3.00943Z" fill="#166433"/>
<path d="M3.01125 47.5925V47.5936V47.5948H3.01013V47.5936V47.5925H3.01125Z" fill="#166433"/>
<path d="M3.01407 47.5936H3.01296V47.5948C3.01351 47.5948 3.01407 47.5945 3.01407 47.5936V47.5948H3.01296H3.01184V47.5936L3.01296 47.5925V47.5936H3.01407Z" fill="#166433"/>
<path d="M3.01589 47.5936V47.5925H3.017V47.5948H3.01589H3.01477V47.5936L3.01589 47.5925V47.5936ZM3.01589 47.5948V47.5936V47.5948Z" fill="#166433"/>
<path d="M3.01918 47.5948V47.5936V47.5948ZM3.01918 47.5936V47.5925C3.01974 47.5925 3.0203 47.5931 3.0203 47.5936V47.5948H3.01918H3.01807V47.5925H3.01918V47.5936Z" fill="#166433"/>
<path d="M3.02136 47.5925H3.02248V47.5936V47.5925H3.02359L3.02248 47.5948V47.5959H3.02136V47.5948H3.02248L3.02136 47.5925Z" fill="#166433"/>
<path d="M3.02651 47.5925V47.5936V47.5948H3.02762V47.5936C3.02762 47.5931 3.02706 47.5925 3.02651 47.5925ZM3.02651 47.5925H3.02762V47.5936V47.5948H3.02651H3.02539V47.5936V47.5925H3.02651Z" fill="#166433"/>
<path d="M3.0282 47.5925H3.02931V47.5948H3.0282V47.5925Z" fill="#166433"/>
<path d="M3.03153 47.5936H3.03041V47.5948C3.03097 47.5948 3.03153 47.5945 3.03153 47.5936V47.5948H3.03041H3.0293V47.5936L3.03041 47.5925V47.5936H3.03153Z" fill="#166433"/>
<path d="M3.03458 47.5936V47.5948H3.03346V47.5936V47.5948H3.03235V47.5925H3.03346V47.5936V47.5925C3.03402 47.5925 3.03458 47.5931 3.03458 47.5936Z" fill="#166433"/>
<path d="M3.03591 47.5936V47.5948V47.5936ZM3.03702 47.5936V47.5948H3.03591H3.03479V47.5936H3.03591H3.03479V47.5925H3.03591V47.5936H3.03702Z" fill="#166433"/>
<path d="M3.03894 47.5925H3.04006H3.04117V47.5936H3.04006V47.5948H3.03894V47.5925ZM3.04006 47.5925V47.5936V47.5925Z" fill="#166433"/>
<path d="M3.04323 47.5936V47.5948V47.5936ZM3.04435 47.5936V47.5948H3.04323H3.04211V47.5936H3.04323H3.04211V47.5925H3.04323V47.5936H3.04435Z" fill="#166433"/>
<path d="M3.04654 47.5936V47.5948H3.04543V47.5936V47.5948H3.04431V47.5925H3.04543V47.5936V47.5925C3.04599 47.5925 3.04654 47.5931 3.04654 47.5936Z" fill="#166433"/>
<path d="M3.04848 47.5936V47.5948V47.5936ZM3.0496 47.5936V47.5948H3.04848H3.04736V47.5936H3.04848H3.04736V47.5925H3.04848V47.5936H3.0496Z" fill="#166433"/>
<path d="M3.05179 47.5925V47.5936H3.05068C3.05123 47.5936 3.05179 47.5942 3.05179 47.5948H3.05068H3.04956H3.05068V47.5936H3.04956L3.05068 47.5925H3.05179Z" fill="#166433"/>
<path d="M3.05336 47.5936V47.5948V47.5936ZM3.05336 47.5925V47.5936H3.05448C3.05448 47.5945 3.05392 47.5948 3.05336 47.5948H3.05225V47.5936L3.05336 47.5925Z" fill="#166433"/>
<path d="M3.05481 47.5925H3.05593V47.5936V47.5925H3.05704L3.05593 47.5948L3.05481 47.5925Z" fill="#166433"/>
<path d="M3.05973 47.5925V47.5936H3.05861C3.05917 47.5936 3.05973 47.5942 3.05973 47.5948H3.05861H3.0575H3.05861V47.5936H3.0575L3.05861 47.5925H3.05973Z" fill="#166433"/>
<path d="M3.05969 47.5925H3.06081V47.5936V47.5925H3.06192L3.06081 47.5936L3.06192 47.5948H3.06081V47.5936V47.5948H3.05969V47.5925Z" fill="#166433"/>
<path d="M3.06276 47.5936V47.5948V47.5936ZM3.06388 47.5936V47.5948H3.06276H3.06165V47.5936H3.06276H3.06165V47.5925H3.06276V47.5936H3.06388Z" fill="#166433"/>
<path d="M3.00112 47.5966V47.5988H3V47.5966H3.00112Z" fill="#166433"/>
<path d="M3.00246 47.5977V47.5988H3.00134V47.5966H3.00246V47.5977V47.5966V47.5977Z" fill="#166433"/>
<path d="M3.0049 47.5977V47.5988V47.5977ZM3.0049 47.5966V47.5977H3.00602C3.00602 47.5985 3.00546 47.5988 3.0049 47.5988H3.00378V47.5977L3.0049 47.5966Z" fill="#166433"/>
<path d="M3.00821 47.5977V47.5966C3.00877 47.5966 3.00933 47.5971 3.00933 47.5977V47.5988H3.00821V47.5977V47.5988H3.0071V47.5977V47.5988H3.00598V47.5966H3.0071V47.5977V47.5966V47.5977H3.00821Z" fill="#166433"/>
<path d="M3.01259 47.5966V47.5977V47.5988H3.01147V47.5977V47.5966H3.01259Z" fill="#166433"/>
<path d="M3.01542 47.5977V47.5988H3.0143V47.5977V47.5988H3.01318V47.5966H3.0143V47.5977V47.5966C3.01486 47.5966 3.01542 47.5971 3.01542 47.5977Z" fill="#166433"/>
<path d="M3.01835 47.5977H3.01723V47.5988C3.01779 47.5988 3.01835 47.5985 3.01835 47.5977V47.5988H3.01723H3.01611V47.5977L3.01723 47.5966V47.5977H3.01835Z" fill="#166433"/>
<path d="M3.02026 47.5966H3.02138L3.0225 47.5977V47.5966V47.5988L3.02138 47.5977V47.5988H3.02026V47.5966Z" fill="#166433"/>
<path d="M3.02419 47.5977V47.5988V47.5977ZM3.02419 47.5966V47.5977H3.0253C3.0253 47.5985 3.02475 47.5988 3.02419 47.5988H3.02307V47.5977L3.02419 47.5966Z" fill="#166433"/>
<path d="M3.02625 47.5977V47.5966H3.02736V47.5977V47.5988V47.5977V47.5966H3.02848V47.5988H3.02736H3.02625V47.5977Z" fill="#166433"/>
<path d="M3.03067 47.5977V47.5988H3.02956V47.5977V47.5988H3.02844V47.5966H3.02956V47.5977V47.5966C3.03012 47.5966 3.03067 47.5971 3.03067 47.5977Z" fill="#166433"/>
<path d="M3.03284 47.5966H3.03395H3.03507V47.5977H3.03395V47.5988H3.03284V47.5966ZM3.03395 47.5966V47.5977V47.5966Z" fill="#166433"/>
<path d="M3.03725 47.5977V47.5988H3.03613V47.5966H3.03725V47.5977V47.5966V47.5977Z" fill="#166433"/>
<path d="M3.03859 47.5977V47.5988V47.5977ZM3.03859 47.5966V47.5977H3.03971C3.03971 47.5985 3.03915 47.5988 3.03859 47.5988H3.03748V47.5977L3.03859 47.5966Z" fill="#166433"/>
<path d="M3.04004 47.5966H3.04116V47.5988H3.04004V47.5999V47.5966ZM3.04004 47.5966H3.04116H3.04004Z" fill="#166433"/>
<path d="M3.0441 47.5977H3.04299V47.5988C3.04354 47.5988 3.0441 47.5985 3.0441 47.5977V47.5988H3.04299H3.04187V47.5977L3.04299 47.5966V47.5977H3.0441Z" fill="#166433"/>
<path d="M3.0463 47.5966V47.5977H3.04518V47.5988H3.0463H3.04518H3.04407V47.5977L3.04518 47.5966H3.0463Z" fill="#166433"/>
<path d="M3.04787 47.5966V47.5977V47.5988H3.04675V47.5977V47.5966H3.04787Z" fill="#166433"/>
</svg>
