<svg width="50" height="50" viewBox="0 0 50 50" fill="none" xmlns="http://www.w3.org/2000/svg">
<path d="M17.0152 21.9791C17.0152 23.82 15.5227 25.3122 13.6818 25.3122C11.8408 25.3122 10.3486 23.82 10.3486 21.9791C10.3486 20.1381 11.8408 18.6456 13.6818 18.6456C15.5227 18.6456 17.0152 20.1381 17.0152 21.9791" fill="#166433"/>
<path d="M14.8938 40.4034C15.0149 40.9489 15.4998 41.3124 16.0453 41.3124C16.7118 41.3124 17.2573 40.767 17.2573 40.1004V28.6461C17.7423 28.8886 18.2269 29.1916 18.6513 29.5552V26.8277C17.9848 26.2823 17.2573 25.9187 16.4694 25.6157C15.6815 26.2217 14.7119 26.5852 13.6815 26.5852C12.651 26.5852 11.6815 26.2217 10.8935 25.6157C7.31769 26.9491 5.07548 30.7066 5.74205 34.5249C6.16616 31.9794 7.86312 29.7975 10.1056 28.7069V40.2826C10.1056 40.9492 10.6511 41.4947 11.3177 41.4947C11.8632 41.4947 12.3481 41.1311 12.4692 40.5856L13.6813 35.0097L14.8938 40.4034Z" fill="#166433"/>
<path d="M29.803 13.2519C29.803 15.8962 27.6593 18.0399 25.0151 18.0399C22.3709 18.0399 20.2272 15.8962 20.2272 13.2519C20.2272 10.6077 22.3709 8.46429 25.0151 8.46429C27.6593 8.46429 29.803 10.6077 29.803 13.2519Z" fill="#166433"/>
<path d="M32.0459 23.3126C31.4399 21.4337 32.2278 20.4036 32.2278 20.1611C31.1369 19.2521 29.8643 18.5853 28.4703 18.1611C27.5008 18.8277 26.3493 19.2521 25.0763 19.2521C23.8038 19.2521 22.6522 18.8885 21.6823 18.1611C20.2883 18.5852 19.0158 19.2521 17.9248 20.1611C18.3489 21.0096 18.4703 22.5247 17.9248 23.6762C17.8643 23.7973 17.8643 23.8581 17.8037 23.9792C17.7432 24.1003 17.5613 24.3428 17.5007 24.5247C18.2282 23.8581 19.0766 23.3126 19.9857 22.8883V39.1911C19.9857 40.1607 20.5917 41.0701 21.5007 41.3122C22.7128 41.6758 23.7432 40.7667 23.9249 39.6758L25.0156 31.3736L26.2882 39.8586C26.4093 40.7677 27.1972 41.3737 28.1062 41.3737C29.1972 41.3737 30.1668 40.4646 30.1668 39.3131V22.9496C31.0759 23.3737 31.8638 23.9191 32.6517 24.586C32.4701 24.2827 32.2276 23.7978 32.046 23.3128L32.0459 23.3126Z" fill="#166433"/>
<path d="M32.7123 24.5855C32.6517 24.525 32.6517 24.525 32.7123 24.5855V24.5855Z" fill="#166433"/>
<path d="M39.6816 21.9791C39.6816 23.82 38.1894 25.3122 36.3484 25.3122C34.5075 25.3122 33.015 23.82 33.015 21.9791C33.015 20.1381 34.5075 18.6456 36.3484 18.6456C38.1894 18.6456 39.6816 20.1381 39.6816 21.9791" fill="#166433"/>
<path d="M39.1366 25.5548C38.3486 26.1608 37.3791 26.5244 36.3486 26.5244C35.3182 26.5244 34.3486 26.1608 33.5607 25.5548C32.7728 25.8578 32.0456 26.2822 31.3788 26.7669V29.4943C31.8029 29.1307 32.2879 28.8883 32.7728 28.6458V40.1608C32.7728 40.8274 33.3183 41.3729 33.9849 41.3729C34.5303 41.3729 35.0153 41.0093 35.1364 40.4638L36.3484 34.8879L37.5605 40.4638C37.6816 41.0093 38.1665 41.3729 38.712 41.3729C39.3786 41.3729 39.9241 40.8274 39.9241 40.1608L39.9246 28.6458C42.1671 29.7973 43.8641 31.9184 44.2882 34.4639C44.955 30.4033 42.5915 26.8274 39.1367 25.5546L39.1366 25.5548Z" fill="#166433"/>
</svg>
