<svg width="50" height="50" viewBox="0 0 50 50" fill="none" xmlns="http://www.w3.org/2000/svg">
<path d="M24.0073 27.4938C24.7514 27.364 25.5421 27.1665 26.3603 26.9081L26.3631 26.9045L26.5827 26.8314C28.0875 26.3348 29.6791 25.759 30.9568 25.0727C28.632 21.7218 24.7617 19.5243 20.3744 19.5243H18.8778C11.7653 19.5243 6 25.2898 6 32.403C6 34.3381 7.56897 35.9082 9.5052 35.9082H22.7791C22.7755 35.7913 22.7634 35.6768 22.7634 35.5592L22.763 28.9683C22.7627 28.2396 23.2864 27.6193 24.0077 27.4938L24.0073 27.4938ZM19.6261 18.5539C24.1973 18.5539 27.903 14.8483 27.903 10.2768C27.903 5.70563 24.1973 2 19.6261 2C15.0549 2 11.3493 5.70563 11.3493 10.2768C11.3489 14.848 15.0546 18.5539 19.6261 18.5539ZM43.5262 28.4509C42.6506 28.2987 41.7301 28.0606 40.8189 27.7557C38.1889 26.8894 35.595 25.8887 34.2277 24.448C34.1239 24.3393 33.987 24.2844 33.8505 24.2844C33.7139 24.2844 33.577 24.3389 33.4733 24.448C32.1058 25.8883 29.5131 26.8891 26.8867 27.7557L26.8817 27.7614C25.9659 28.0623 25.0461 28.2998 24.174 28.452C23.9195 28.4959 23.7341 28.7115 23.7341 28.9704V35.562C23.7341 40.9342 27.7491 45.6032 33.6484 47.9615C33.7123 47.9872 33.7814 48 33.8502 48C33.9194 48 33.9889 47.9872 34.0527 47.9622C39.9523 45.6093 43.9671 40.9397 43.9671 35.5627L43.9674 28.9694C43.9674 28.7109 43.7803 28.4955 43.5257 28.4517L43.5262 28.4509ZM38.5589 34.2821L33.3061 39.5367C33.1018 39.7403 32.8255 39.8551 32.5367 39.8551C32.2479 39.8551 31.972 39.7399 31.7681 39.5367L29.1398 36.9092C28.7163 36.485 28.7163 35.7966 29.1398 35.3719C29.5644 34.9477 30.2536 34.9477 30.6779 35.3719L32.5367 37.2318L37.0217 32.7455C37.447 32.3209 38.1347 32.3209 38.559 32.7451C38.9847 33.1698 38.9847 33.8578 38.559 34.2821L38.5589 34.2821Z" fill="#166433"/>
</svg>
