<svg width="50" height="50" viewBox="0 0 50 50" fill="none" xmlns="http://www.w3.org/2000/svg">
<path fill-rule="evenodd" clip-rule="evenodd" d="M40.1753 41.7583C39.5453 40.5331 39.334 40.0601 38.4049 39.087C40.1514 39.7422 41.6346 39.8236 42.9544 40.6378C43.7958 41.1496 45.0438 41.5373 45.3827 42.1537C46.22 43.6813 46.0964 45.3755 46.543 47H32.9862V45.7749V45.4259V45.3329V45.1429V45.046V44.9103V44.7707V44.6815V44.4179V44.2938V44.1698L32.9662 44.0031V43.9216L34.0946 44.8831L38.377 41.7156L40.1952 41.7583H40.1753ZM12.7067 4H26.5188C26.9597 3.99999 27.3962 4.08567 27.8027 4.25201C28.2169 4.41462 28.5937 4.65581 28.9111 4.9615V4.9615C29.2224 5.26517 29.4702 5.6246 29.6408 6.01993C29.8111 6.41536 29.8992 6.83964 29.9 7.26833V14.5455C29.9 14.9743 29.8119 15.3987 29.6408 15.7939C29.4702 16.1892 29.2224 16.5486 28.9111 16.8523V16.8523C28.5957 17.1586 28.2219 17.4022 27.8106 17.5696C27.4034 17.7328 26.9672 17.8171 26.5267 17.8177H24.1264L19.8639 20.865L18.1454 17.8138H12.7067C12.2665 17.8144 11.8304 17.7315 11.4228 17.5696C11.0151 17.4037 10.6441 17.1627 10.3303 16.8601V16.8601C10.019 16.5564 9.77125 16.197 9.60062 15.8016C9.42955 15.4065 9.34144 14.982 9.34144 14.5532V7.26833C9.34462 6.40254 9.70014 5.57318 10.3303 4.9615C10.643 4.65751 11.0142 4.41642 11.4228 4.25201C11.8292 4.08567 12.2658 3.99999 12.7067 4V4ZM24.1463 9.59454C24.3963 9.59454 24.6407 9.66662 24.8485 9.80166C25.0564 9.93671 25.2184 10.1287 25.3141 10.3532C25.4097 10.5778 25.4348 10.8249 25.386 11.0633C25.3372 11.3017 25.2168 11.5207 25.0401 11.6926C24.8633 11.8645 24.6381 11.9815 24.3929 12.0289C24.1477 12.0764 23.8936 12.052 23.6626 11.959C23.4316 11.866 23.2342 11.7085 23.0954 11.5064C22.9565 11.3042 22.8823 11.0666 22.8823 10.8236C22.8823 10.4976 23.0155 10.185 23.2525 9.95451C23.4896 9.72402 23.8111 9.59454 24.1463 9.59454ZM15.0872 9.59454C15.3371 9.59454 15.5815 9.66662 15.7894 9.80166C15.9972 9.93671 16.1592 10.1287 16.2549 10.3532C16.3506 10.5778 16.3756 10.8249 16.3268 11.0633C16.2781 11.3017 16.1577 11.5207 15.9809 11.6926C15.8041 11.8645 15.5789 11.9815 15.3337 12.0289C15.0886 12.0764 14.8344 12.052 14.6034 11.959C14.3725 11.866 14.1751 11.7085 14.0362 11.5064C13.8973 11.3042 13.8232 11.0666 13.8232 10.8236C13.8232 10.4976 13.9563 10.185 14.1934 9.95451C14.4304 9.72402 14.7519 9.59454 15.0872 9.59454ZM19.6167 9.59454C19.8667 9.59454 20.1111 9.66662 20.319 9.80166C20.5268 9.93671 20.6888 10.1287 20.7845 10.3532C20.8802 10.5778 20.9052 10.8249 20.8564 11.0633C20.8076 11.3017 20.6873 11.5207 20.5105 11.6926C20.3337 11.8645 20.1085 11.9815 19.8633 12.0289C19.6181 12.0764 19.364 12.052 19.133 11.959C18.9021 11.866 18.7047 11.7085 18.5658 11.5064C18.4269 11.3042 18.3528 11.0666 18.3528 10.8236C18.3528 10.4976 18.4859 10.185 18.723 9.95451C18.96 9.72402 19.2815 9.59454 19.6167 9.59454V9.59454ZM26.0841 5.32982H12.7067C12.178 5.32982 11.6709 5.53405 11.297 5.89759C10.9231 6.26113 10.7131 6.7542 10.7131 7.26833V14.5455C10.7131 14.8001 10.7646 15.0521 10.8648 15.2873C10.965 15.5225 11.1119 15.7362 11.297 15.9162C11.4821 16.0962 11.7019 16.239 11.9438 16.3364C12.1857 16.4339 12.4449 16.484 12.7067 16.484H18.7555C18.8902 16.493 19.0158 16.5535 19.1048 16.6523C19.1937 16.7511 19.2387 16.8802 19.23 17.0113L20.3025 18.9033L23.4924 16.6236C23.5396 16.5779 23.5956 16.5417 23.6571 16.5171C23.7187 16.4925 23.7847 16.4799 23.8512 16.4801H26.5188C27.0475 16.4801 27.5546 16.2759 27.9285 15.9123C28.3024 15.5488 28.5124 15.0557 28.5124 14.5416V7.26833C28.5124 6.7542 28.3024 6.26113 27.9285 5.89759C27.5546 5.53405 27.0475 5.32982 26.5188 5.32982H26.0841ZM1 46.9922C1.5981 39.4476 3.06144 42.2739 9.68036 38.2457C11.5066 42.8555 20.2786 43.1656 22.2045 38.2457C27.9183 41.797 30.7692 39.1141 30.7333 46.9922H1ZM11.7418 37.8851C11.7733 37.5381 11.8721 37.2 12.0329 36.8887C11.5583 36.5389 11.1664 36.0942 10.8837 35.5846C10.601 35.0749 10.434 34.5122 10.3941 33.9344H10.3064C10.0985 33.9326 9.89438 33.8807 9.71226 33.7832C9.41377 33.6004 9.18432 33.3283 9.05834 33.0078C8.7593 32.3332 8.52006 30.5653 9.27765 30.0613L9.13809 29.976V29.7783C9.10619 29.4255 9.09822 29.0029 9.09423 28.5415C9.05037 26.8744 9.01448 25.7423 7.63886 25.3236L7.04874 25.1491L7.44747 24.68C8.46538 23.4283 9.62054 22.2882 10.8925 21.2799C12.0342 20.3316 13.4071 19.6842 14.8798 19.3995C15.5658 19.291 16.2679 19.3292 16.9372 19.5113C17.6065 19.6934 18.227 20.0151 18.7555 20.4541C19.1384 20.7559 19.4872 21.0964 19.7962 21.4698C22.7667 21.749 24.3257 23.9628 24.1822 26.5875C24.1416 27.9543 23.572 29.2558 22.5873 30.2319C22.7621 30.2371 22.9335 30.2794 23.0897 30.356C23.6599 30.6545 23.6798 31.3058 23.5283 31.8486C23.3807 32.3022 23.1894 32.8295 23.0139 33.2715C22.7946 33.8685 22.4796 33.981 21.8656 33.9151C21.8337 35.3922 21.1319 36.1172 20.1869 36.9857L20.3783 37.73C19.7842 40.5448 13.4524 40.851 11.7418 37.889V37.8851ZM47.5478 9.78839H33.8634C33.3362 9.79344 32.8322 9.99929 32.4594 10.3617C32.0866 10.7242 31.8749 11.2143 31.8697 11.7269V20.3378C31.8749 20.8503 32.0866 21.3404 32.4594 21.7029C32.8322 22.0654 33.3362 22.2712 33.8634 22.2763H35.857C35.9236 22.2802 35.9887 22.2969 36.0486 22.3254C36.1085 22.3538 36.162 22.3935 36.2061 22.4421C36.2502 22.4908 36.2839 22.5474 36.3055 22.6087C36.327 22.6701 36.3358 22.735 36.3315 22.7997L36.5867 24.5753L40.6019 22.4158C40.6491 22.3702 40.7051 22.334 40.7667 22.3094C40.8282 22.2847 40.8942 22.2722 40.9608 22.2724H48.0063C48.5335 22.2673 49.0376 22.0615 49.4103 21.699C49.7831 21.3366 49.9948 20.8464 50 20.3339V11.754C49.9948 11.2415 49.7831 10.7513 49.4103 10.3889C49.0376 10.0264 48.5335 9.82058 48.0063 9.81553L47.5478 9.78839ZM40.9289 14.4679C41.1598 14.4718 41.3844 14.5416 41.5748 14.6688C41.7651 14.7959 41.9128 14.9747 41.9993 15.1829C42.0858 15.391 42.1075 15.6194 42.0614 15.8394C42.0154 16.0595 41.9038 16.2615 41.7405 16.4202C41.5772 16.579 41.3695 16.6875 41.1432 16.7323C40.9169 16.777 40.682 16.756 40.4679 16.6719C40.2538 16.5877 40.07 16.4441 39.9392 16.2591C39.8085 16.074 39.7366 15.8556 39.7327 15.6311C39.73 15.4776 39.7591 15.3252 39.8182 15.1829C39.8774 15.0406 39.9654 14.9113 40.077 14.8028C40.1887 14.6942 40.3216 14.6087 40.4679 14.5511C40.6143 14.4936 40.771 14.4653 40.9289 14.4679V14.4679ZM45.1913 14.4679C45.4222 14.4718 45.6468 14.5416 45.8372 14.6688C46.0275 14.7959 46.1752 14.9747 46.2617 15.1829C46.3483 15.391 46.3699 15.6194 46.3239 15.8394C46.2778 16.0595 46.1662 16.2615 46.0029 16.4202C45.8396 16.579 45.6319 16.6875 45.4056 16.7323C45.1793 16.777 44.9445 16.756 44.7304 16.6719C44.5163 16.5877 44.3324 16.4441 44.2016 16.2591C44.0709 16.074 43.9991 15.8556 43.9951 15.6311C43.9924 15.4776 44.0215 15.3252 44.0807 15.1829C44.1398 15.0406 44.2278 14.9113 44.3395 14.8028C44.4511 14.6942 44.584 14.6087 44.7304 14.5511C44.8767 14.4936 45.0335 14.4653 45.1913 14.4679V14.4679ZM36.6625 14.4679C36.8934 14.4718 37.118 14.5416 37.3083 14.6688C37.4987 14.7959 37.6463 14.9747 37.7329 15.1829C37.8194 15.391 37.841 15.6194 37.795 15.8394C37.749 16.0595 37.6374 16.2615 37.4741 16.4202C37.3108 16.579 37.1031 16.6875 36.8768 16.7323C36.6505 16.777 36.4156 16.756 36.2015 16.6719C35.9874 16.5877 35.8035 16.4441 35.6728 16.2591C35.542 16.074 35.4702 15.8556 35.4663 15.6311C35.4636 15.4776 35.4927 15.3252 35.5518 15.1829C35.611 15.0406 35.699 14.9113 35.8106 14.8028C35.9222 14.6942 36.0552 14.6087 36.2015 14.5511C36.3479 14.4936 36.5046 14.4653 36.6625 14.4679V14.4679ZM29.884 39.1141L29.9478 39.0909L29.912 39.1258H29.892L29.884 39.1141ZM31.2078 37.3772V38.4434L30.6695 39.5639L30.7014 39.5871L30.7652 39.6337L30.7971 39.6569L30.845 39.6957L30.8769 39.7228L30.9088 39.7461L30.9566 39.7849L31.0005 39.8198L31.0324 39.8469L31.0603 39.874L31.0922 39.9012L31.1201 39.9244L31.152 39.9516L31.1799 39.9787L31.2078 40.0059L31.2477 40.0446L31.2756 40.0718L31.3035 40.0989L31.3314 40.1299L31.3554 40.1609L31.3833 40.1881L31.4072 40.2152L31.4351 40.2462L31.459 40.2772L31.5029 40.3315L31.5268 40.3625L31.5507 40.3936L31.5786 40.4285L31.6026 40.4595L31.6265 40.4944L31.6783 40.5603L31.7023 40.5952L31.7461 40.6572L31.77 40.6921V40.727L31.8099 40.7929V40.8317L31.8498 40.9014V40.9402V40.979L31.8737 41.0178V41.0565V41.0992L32.101 41.2194V41.2581L32.1369 41.3318V41.3744L32.1568 41.4171L32.1967 41.5063V41.5528L32.2326 41.642L34.1106 43.0571L37.9304 40.1493L36.7342 38.3116V37.3423C37.8754 37.3008 39.0114 37.1711 40.1314 36.9546C40.9274 36.8075 41.6698 36.4599 42.2846 35.9466C41.9021 35.7607 41.5631 35.5003 41.2887 35.1814C41.0143 34.8626 40.8104 34.4922 40.6896 34.0934C40.0078 32.1549 40.6538 30.732 40.3507 28.6191C39.952 25.785 37.9902 24.7808 36.0843 25.2034C33.9989 23.2649 29.4056 24.2342 28.2373 27.5296C27.7149 29.2006 28.0618 30.0419 28.002 31.7246C27.9183 33.9887 27.3082 35.2875 26.0084 35.7683C26.5333 36.3427 27.2149 36.7608 27.9741 36.974C29.0389 37.2215 30.129 37.3515 31.2238 37.3617L31.2078 37.3772Z" fill="#166433"/>
</svg>
