<svg width="50" height="50" viewBox="0 0 50 50" fill="none" xmlns="http://www.w3.org/2000/svg">
<path fill-rule="evenodd" clip-rule="evenodd" d="M12.0045 40.8869V26.0251H18.6889C21.522 26.5321 24.3552 28.0694 27.1883 29.8522H32.3796C34.7298 29.9931 35.9613 32.3755 33.6755 33.9409C31.8565 35.277 29.454 35.2005 26.9911 34.9792C25.2928 34.8947 25.2204 37.1765 26.9911 37.1845C27.6068 37.2328 28.2748 37.0879 28.8584 37.0879C31.9289 37.0839 34.4602 36.4964 36.0096 34.0697L36.7863 32.2547L44.5089 28.4276C48.3723 27.1559 51.1209 31.1963 48.2717 34.0093C42.6779 38.0779 36.9432 41.4261 31.0758 44.1305C26.814 46.7221 22.5523 46.6336 18.2945 44.1305L12.0045 40.8869ZM45.5593 13.7952C45.7645 14.1413 45.8772 14.5115 45.8772 14.8938C45.8772 16.9301 42.7302 18.5761 38.8507 18.5761C34.9713 18.5761 31.8243 16.9261 31.8243 14.8938C31.8243 14.5115 31.937 14.1413 32.1422 13.7952C33.0356 15.2922 35.6997 16.3788 38.8467 16.3788C42.0018 16.3788 44.6659 15.2922 45.5593 13.7952ZM29.6351 19.2803C29.8443 19.6304 29.953 19.9967 29.953 20.379C29.953 22.4153 26.806 24.0612 22.9265 24.0612C19.0471 24.0612 15.9001 22.4112 15.9001 20.379C15.9001 19.9967 16.0128 19.6264 16.218 19.2803C17.1114 20.7774 19.7755 21.8639 22.9225 21.8639C26.0776 21.8639 28.7417 20.7774 29.6351 19.2803ZM23.9487 13.8958L23.9326 12.9823C24.1419 12.9742 24.3069 12.9098 24.4356 12.7931C24.5684 12.6764 24.6369 12.5356 24.653 12.3706C24.6691 12.1814 24.6047 12.0124 24.4638 11.8675C24.323 11.7227 24.0936 11.6341 23.7837 11.61C23.494 11.5858 23.2686 11.6301 23.1116 11.7508C22.9547 11.8675 22.8662 12.0325 22.8501 12.2418C22.8299 12.5034 22.9225 12.7448 23.1358 12.9742L22.9668 13.7026L20.5401 13.0225L20.7494 10.624L21.5985 10.6965L21.4496 12.4108L22.2424 12.6241C22.1579 12.4108 22.1257 12.2016 22.1458 11.9883C22.178 11.5858 22.3591 11.2558 22.673 11.0023C22.9909 10.7488 23.3813 10.6401 23.8521 10.6844C24.2425 10.7166 24.5805 10.8615 24.8662 11.115C25.2566 11.4571 25.4296 11.9038 25.3814 12.4511C25.3411 12.8857 25.1962 13.2358 24.9387 13.4893C24.6811 13.7388 24.3511 13.8757 23.9487 13.8958ZM22.9265 10.2337C26.1138 10.2337 28.7014 11.2478 28.7014 12.4994C28.7014 13.7509 26.1138 14.765 22.9265 14.765C19.7393 14.765 17.1516 13.7549 17.1516 12.5034C17.1516 11.2518 19.7393 10.2337 22.9265 10.2337ZM22.9265 9.48514C26.806 9.48514 29.953 11.1351 29.953 13.1674C29.953 15.2037 26.806 16.8496 22.9265 16.8496C19.0471 16.8456 15.9001 15.1997 15.9001 13.1674C15.9041 11.1351 19.0511 9.48514 22.9265 9.48514ZM29.6592 15.6222C29.8483 15.9562 29.953 16.3144 29.953 16.6806C29.953 18.7169 26.806 20.3629 22.9265 20.3629C19.0471 20.3629 15.9001 18.7129 15.9001 16.6806C15.9001 16.3104 16.0007 15.9603 16.1938 15.6262C17.0631 17.1434 19.7473 18.2501 22.9225 18.2501C26.1057 18.2501 28.79 17.1434 29.6592 15.6222ZM41.3901 6.1852L41.3096 7.09872L37.8608 6.7969C38.1465 7.15909 38.3397 7.57359 38.4523 8.03639L37.6233 7.96395C37.567 7.71847 37.4382 7.44481 37.2491 7.15104C37.0559 6.84922 36.8185 6.63995 36.5327 6.51117L36.5971 5.7707L41.3901 6.1852ZM38.8507 4.75255C42.038 4.75255 44.6256 5.76667 44.6256 7.01824C44.6256 8.2698 42.038 9.28393 38.8507 9.28393C35.6635 9.28393 33.0799 8.26577 33.0799 7.01421C33.0799 5.76265 35.6635 4.75255 38.8507 4.75255ZM38.8507 4C42.7302 4 45.8772 5.64997 45.8772 7.68225C45.8772 9.71453 42.7302 11.3645 38.8507 11.3645C34.9713 11.3645 31.8243 9.71453 31.8243 7.68225C31.8243 5.64997 34.9753 4 38.8507 4ZM45.5834 10.1371C45.7726 10.4711 45.8772 10.8293 45.8772 11.1915C45.8772 13.2278 42.7302 14.8737 38.8507 14.8737C34.9713 14.8737 31.8243 13.2237 31.8243 11.1915C31.8243 10.8212 31.9249 10.4711 32.1181 10.1371C32.9833 11.6542 35.6675 12.7609 38.8467 12.7609C42.03 12.765 44.7182 11.6583 45.5834 10.1371ZM45.515 21.3005C45.7484 21.6708 45.8772 22.0611 45.8772 22.4716C45.8772 24.5079 42.7302 26.1539 38.8507 26.1539C34.9713 26.1539 31.8243 24.5039 31.8243 22.4716C31.8243 22.0611 31.9531 21.6708 32.1865 21.3005C33.1201 22.7573 35.752 23.8117 38.8467 23.8117C41.9414 23.8117 44.5814 22.7614 45.515 21.3005ZM45.5472 17.5096C45.7605 17.8638 45.8772 18.238 45.8772 18.6284C45.8772 20.6607 42.7302 22.3106 38.8507 22.3106C34.9713 22.3106 31.8243 20.6607 31.8243 18.6284C31.8243 18.238 31.941 17.8638 32.1543 17.5096C33.0557 18.9986 35.7118 20.0731 38.8507 20.0731C41.9897 20.0731 44.6417 18.9986 45.5472 17.5096ZM0 24.5964H9.99238V42.3759H0V24.5964Z" fill="#166433"/>
</svg>
