<svg width="50" height="50" viewBox="0 0 50 50" fill="none" xmlns="http://www.w3.org/2000/svg">
<path d="M19.4705 3.61699H24.113C25.8717 3.61699 27.3372 4.87314 27.6721 6.53231H30.3205C29.9646 3.42333 27.3162 1 24.113 1H19.4705C16.2673 1 13.6189 3.42333 13.2629 6.53231H15.9114C16.2464 4.86791 17.7119 3.61699 19.4705 3.61699Z" fill="#166433"/>
<path d="M7.65765 17.6964C11.4156 20.125 16.435 21.4649 21.7946 21.4649C27.1542 21.4649 32.1684 20.125 35.9316 17.6964C39.3127 15.5138 41.2755 12.6927 41.5162 9.70411C40.6108 8.56834 39.2185 7.84082 37.6483 7.84082H30.3626H27.7456H15.8436H13.2266H5.94091C4.37595 7.84082 2.97848 8.56834 2.073 9.70411C2.31376 12.6927 4.2765 15.5086 7.65765 17.6964Z" fill="#166433"/>
<path d="M20.0046 24.9559C20.0046 25.7724 20.6694 26.4371 21.4859 26.4371H22.0982C22.9148 26.4371 23.5795 25.7724 23.5795 24.9559V23.773H20.0046V24.9559Z" fill="#166433"/>
<path d="M5.94087 33.1262H27.8974V29.7921C27.8974 29.3891 28.0596 29.007 28.3475 28.7243L33.3564 23.7992C33.639 23.5218 34.0159 23.37 34.4085 23.37H42.5839V13.5406C42.3641 13.9907 42.1129 14.4356 41.825 14.8753C40.6997 16.5972 39.0929 18.136 37.0621 19.4497C33.906 21.491 29.9543 22.8204 25.673 23.3281V23.7677V24.9507C25.673 26.9239 24.0713 28.5255 22.0981 28.5255H21.4858C19.5126 28.5255 17.9109 26.9239 17.9109 24.9507V23.7678V23.3281C13.6295 22.8256 9.67788 21.4909 6.52179 19.4497C4.49101 18.136 2.88418 16.5972 1.75887 14.8753C1.47106 14.4356 1.21983 13.9907 1 13.5406V28.1853C1 30.9122 3.21397 33.1262 5.94087 33.1262Z" fill="#166433"/>
<path d="M35.5232 24.5634C34.8219 24.5634 34.1362 24.8512 33.639 25.3485L30.0223 28.9914C29.5251 29.4939 29.2529 30.1533 29.2529 30.8599V33.1262V33.7805V34.4347V46.4047C29.2529 46.5303 29.2634 46.656 29.2791 46.7763C29.4571 48.0639 30.5667 49.0584 31.9066 49.0584H46.7606C48.2209 49.0584 49.4142 47.8703 49.4142 46.4048V27.2118C49.4142 25.9295 48.5035 24.8617 47.2944 24.6157C47.1217 24.5791 46.9438 24.5634 46.7658 24.5634H43.8924H43.2381H42.5839H35.5232ZM43.8924 27.1803H46.7606C46.7815 27.1803 46.7972 27.1961 46.7972 27.217V46.41C46.7972 46.4152 46.7972 46.4152 46.7972 46.4205C46.792 46.4361 46.7815 46.4467 46.7658 46.4467C46.7658 46.4467 46.7658 46.4467 46.7605 46.4467H31.9066C31.8856 46.4467 31.8699 46.4309 31.8699 46.41V34.4347V33.7804V33.1262V31.399H33.7908C34.9894 31.399 35.9629 30.4254 35.9629 29.2269V27.1803H42.5839H43.2381H43.8924Z" fill="#166433"/>
<path d="M40.2551 33.1315H34.5553C34.0738 33.1315 33.6551 33.3932 33.4248 33.7805C33.3096 33.9741 33.2468 34.1939 33.2468 34.4348V34.44C33.2468 35.1623 33.833 35.7485 34.5553 35.7485H44.1178C44.8401 35.7485 45.4263 35.1623 45.4263 34.44C45.4263 33.7177 44.8401 33.1315 44.1178 33.1315H41.4642H40.2551Z" fill="#166433"/>
<path d="M44.1178 41.375H34.5553C33.833 41.375 33.2468 41.9612 33.2468 42.6835C33.2468 43.4057 33.833 43.992 34.5553 43.992H44.1178C44.8401 43.992 45.4263 43.4057 45.4263 42.6835C45.4263 41.9612 44.8401 41.375 44.1178 41.375Z" fill="#166433"/>
<path d="M44.1178 37.2558H34.5553C33.833 37.2558 33.2468 37.8421 33.2468 38.5643C33.2468 39.2866 33.833 39.8728 34.5553 39.8728H44.1178C44.8401 39.8728 45.4263 39.2866 45.4263 38.5643C45.4263 37.8421 44.8401 37.2558 44.1178 37.2558Z" fill="#166433"/>
</svg>
