<svg width="50" height="50" viewBox="0 0 50 50" fill="none" xmlns="http://www.w3.org/2000/svg">
<path d="M22.1458 0.983322C27.9792 0.983322 33.2691 3.3733 37.1013 7.21602C40.933 11.0746 43.2908 16.3856 43.2908 22.2747C43.2908 26.5706 42.0188 30.5852 39.8468 33.928L49 43.9724L42.6862 49.7833L33.8592 40.0046C30.5074 42.254 26.4737 43.5665 22.1458 43.5665C16.3124 43.5665 11.0221 41.1761 7.19035 37.3338C3.35821 33.4748 1 28.1635 1 22.2747C1 16.401 3.37359 11.0746 7.19035 7.21602C11.0221 3.35781 16.297 0.983322 22.1458 0.983322ZM15.804 14.4463C18.8856 11.0222 22.4436 9.16239 25.111 12.2069C25.8103 12.2402 26.4359 12.4733 26.9585 12.9698C28.0553 14.0083 28.2257 15.9515 27.724 17.4948V18.8419C28.0636 19.067 28.2833 19.4884 28.3827 19.9677C28.449 20.2763 28.4659 20.6183 28.432 20.9435C28.3997 21.2815 28.3164 21.6024 28.1839 21.8696C27.9938 22.2493 27.7031 22.5158 27.3103 22.5742C26.9242 22.9872 26.5475 23.4292 26.2126 23.8545C25.8435 24.3216 25.5287 24.7636 25.3098 25.1266C25.1394 25.4062 25.1935 25.5896 25.2558 25.7981C25.2842 25.9022 25.3173 26.0106 25.3382 26.1274C26.0138 26.2731 26.6224 26.3899 27.1695 26.4943C30.6447 27.1488 32.6952 27.3533 32.6952 31.9077C32.6952 32.1412 32.5087 32.3291 32.2768 32.3291H13.1074C12.8755 32.3291 12.6889 32.1412 12.6889 31.9077C12.6889 27.3533 14.7355 27.1492 18.2147 26.4943C18.7657 26.3899 19.3825 26.2731 20.0578 26.1274C20.0826 26.0356 20.1118 25.9522 20.1406 25.8688C20.2108 25.6687 20.2814 25.4685 20.0743 25.1309C19.8546 24.768 19.5399 24.3263 19.1715 23.8589C18.8359 23.4336 18.4588 22.9916 18.0739 22.5785C17.6802 22.5205 17.3903 22.2533 17.1998 21.874C17.0673 21.6111 16.9845 21.2858 16.9514 20.9483C16.9222 20.623 16.9387 20.2811 17.0011 19.9721C17.1004 19.4924 17.3158 19.0754 17.651 18.8502L17.1994 18.5789C17.0795 17.2319 17.4314 14.8923 15.7993 14.4503L15.804 14.4463ZM35.4258 8.90306C32.0279 5.48211 27.3273 3.35781 22.1458 3.35781C16.964 3.35781 12.2633 5.48251 8.86583 8.90306C5.46834 12.324 3.35821 17.0571 3.35821 22.2747C3.35821 27.4923 5.46834 32.2254 8.86583 35.6464C12.2633 39.0673 16.964 41.192 22.1458 41.192C27.3273 41.192 32.0279 39.0673 35.4258 35.6464C38.8229 32.2254 40.933 27.4923 40.933 22.2747C40.933 17.0571 38.8229 12.324 35.4258 8.90306Z" fill="#A67D2D"/>
</svg>
