<svg width="50" height="50" viewBox="0 0 50 50" fill="none" xmlns="http://www.w3.org/2000/svg">
<path d="M24.9976 21.8175C24.9976 23.4421 23.6803 24.7594 22.0557 24.7594C20.4307 24.7594 19.1138 23.4421 19.1138 21.8175C19.1138 20.1929 20.4307 18.8756 22.0557 18.8756C23.6803 18.8756 24.9976 20.1929 24.9976 21.8175Z" fill="#A67D2D"/>
<path d="M12.645 33.5247L20.4323 28.8521L19.6534 37.4181L13.4239 42.0907V45.2053L31.3343 31.9667L30.5561 36.6393L32.8919 37.4181L33.6678 31.9851H33.6681C33.7551 31.3757 33.5982 30.7564 33.2314 30.2623C32.8643 29.7681 32.3173 29.4385 31.7089 29.3456C31.1002 29.2523 30.4796 29.4034 29.9819 29.7655L25.8839 32.7455L26.6627 25.7371L33.6711 21.8427V18.7281L12.6456 30.41L12.645 33.5247Z" fill="#A67D2D"/>
<path d="M7.64062 46.8238L10.5829 44.618L11.4648 45.7944L8.52253 48.0002L7.64062 46.8238Z" fill="#A67D2D"/>
<path d="M2.40747 43.8634L10.4974 38.4701L11.3133 39.6941L3.22339 45.0874L2.40747 43.8634Z" fill="#A67D2D"/>
<path d="M2.40088 37.5727L7.54923 34.0615L8.37796 35.2767L3.22961 38.7879L2.40088 37.5727Z" fill="#A67D2D"/>
<path d="M28.1431 2.40086L22.0071 14.8351L8.28516 16.8291L17.9195 26.2189L19.8002 25.1737C18.6297 24.3896 17.9514 23.0527 18.0098 21.6451C18.0686 20.2372 18.8553 18.9616 20.0869 18.277C21.3184 17.5928 22.8173 17.5987 24.0436 18.2925C25.27 18.9866 26.0468 20.2684 26.0944 21.6767L33.1366 17.7645C33.4781 17.5757 33.8941 17.5813 34.2303 17.7793C34.5665 17.9776 34.7734 18.3384 34.7737 18.7289V21.8444C34.7737 22.2447 34.5567 22.6137 34.2067 22.8085L27.6954 26.4254L27.2541 30.3839L29.3305 28.8738V28.8742C30.0634 28.3396 30.9778 28.1164 31.8745 28.253C32.7715 28.3895 33.5779 28.8748 34.1187 29.603C34.6594 30.3313 34.8906 31.2438 34.7619 32.1417L34.0898 36.8488L40.4149 40.1755L38.0715 26.5074L48.0001 16.8293L34.2781 14.8353L28.1431 2.40086Z" fill="#A67D2D"/>
</svg>
