<svg width="50" height="50" viewBox="0 0 50 50" fill="none" xmlns="http://www.w3.org/2000/svg">
<path d="M7.88025 35.9501C8.17406 36.1044 8.4655 36.1827 8.74619 36.1823C9.15331 36.1823 9.51591 36.0181 9.76756 35.7195C9.96994 35.4793 10.1866 35.0484 10.0681 34.3609L9.73616 32.4314L11.1428 31.0645C11.6318 30.5902 11.8131 30.0133 11.6417 29.4829C11.4696 28.9522 10.9837 28.5915 10.3082 28.4937L8.36081 28.2118L7.4901 26.4545C7.18874 25.8446 6.69573 25.4951 6.13794 25.4951C5.57973 25.4951 5.08633 25.845 4.78536 26.4545L3.91505 28.2118L1.96807 28.4937C1.29218 28.5915 0.805928 28.9521 0.633815 29.4833C0.461662 30.0141 0.643358 30.5906 1.13238 31.0645L2.53941 32.4318L2.20822 34.3597C2.08895 35.0475 2.30523 35.4785 2.508 35.7194C2.93262 36.2243 3.67452 36.3281 4.39493 35.9504L6.13794 35.0371L7.88025 35.9501Z" fill="#166433"/>
<path d="M41.0333 28.4935L39.0859 28.2117L38.2164 26.4547C37.9151 25.8448 37.4217 25.4949 36.8634 25.4949C36.3056 25.4949 35.8127 25.8444 35.5109 26.4539L34.6402 28.2113L32.6928 28.4932C32.0173 28.591 31.5319 28.9512 31.3592 29.4823C31.1875 30.0131 31.3688 30.5896 31.8578 31.0639L33.2648 32.4309L32.9328 34.3599C32.814 35.0473 33.031 35.4783 33.2334 35.7189C33.6588 36.2226 34.3995 36.3272 35.1212 35.9495L36.8634 35.0371L38.6064 35.9499C38.9002 36.1042 39.1916 36.1821 39.4719 36.1821C39.879 36.1821 40.2416 36.0179 40.4929 35.7189C40.6956 35.4784 40.9115 35.0474 40.7926 34.3607L40.4615 32.4313L41.8681 31.0643C42.3571 30.59 42.5392 30.0135 42.367 29.4828C42.1945 28.952 41.7086 28.591 41.0332 28.4936L41.0333 28.4935Z" fill="#166433"/>
<path d="M49.9343 19.3342C49.7673 18.8336 49.3168 18.4925 48.6994 18.3991L47.1026 18.1562L46.381 16.6274C45.9866 15.7885 45.3544 15.6982 45.1004 15.6982C44.8467 15.6982 44.215 15.7885 43.8198 16.6266L43.0982 18.1561L41.5022 18.399C40.8848 18.4924 40.4348 18.8332 40.2673 19.3333C40.0987 19.839 40.2582 20.3913 40.7063 20.8481L41.8855 22.0508L41.6056 23.7592C41.4982 24.4176 41.7078 24.8291 41.9022 25.0577C42.3105 25.5368 43.0155 25.633 43.6826 25.2672L45.1008 24.4868L46.5194 25.2672C46.7941 25.4179 47.0689 25.4947 47.3364 25.4947C47.7185 25.4947 48.0608 25.3392 48.3006 25.0565C48.4954 24.8275 48.7045 24.4156 48.596 23.758L48.3161 22.0508L49.4949 20.8486C49.943 20.3917 50.1028 19.8399 49.9343 19.3342L49.9343 19.3342Z" fill="#166433"/>
<path d="M21.5004 20.5973C25.6818 20.5973 29.0704 17.2079 29.0704 13.0265C29.0704 8.84554 25.6818 5.45734 21.5004 5.45734C17.3207 5.45734 13.9304 8.84554 13.9304 13.0265C13.9304 17.2079 17.3207 20.5973 21.5004 20.5973Z" fill="#166433"/>
<path d="M26.4766 39.4238L28.8171 37.0359C29.4254 36.4161 29.6513 35.6917 29.437 35.0476C29.225 34.4131 28.6263 33.9769 27.7945 33.8501L24.5907 33.3634L23.151 30.31C22.6175 29.1797 21.8191 29.0576 21.5006 29.0576C21.1814 29.0576 20.3827 29.1796 19.8511 30.3104L18.4107 33.3634L15.2066 33.8501C14.3744 33.9765 13.7749 34.4134 13.5637 35.0483C13.349 35.6924 13.5749 36.4172 14.1824 37.0351L16.5242 39.4242L15.9707 42.8049C15.8208 43.7146 16.0884 44.258 16.3393 44.5543C16.8526 45.159 17.7495 45.2612 18.6437 44.7698L21.5003 43.1989L24.3562 44.7698C24.7407 44.9813 25.1172 45.0887 25.4746 45.0887C25.9469 45.0887 26.3675 44.899 26.6601 44.5543C26.9114 44.2585 27.1798 43.7146 27.0303 42.8065L26.4766 39.4238Z" fill="#166433"/>
<path d="M9.08741 25.6641L9.54265 26.5829L10.564 26.7308C11.9158 26.926 12.9527 27.7498 13.3364 28.9334C13.72 30.117 13.3642 31.3912 12.3841 32.3427L11.6514 33.0548L11.8239 34.0587C11.849 34.205 11.8645 34.3493 11.8736 34.4928C11.8744 34.4901 11.8744 34.4877 11.8752 34.4853C12.2991 33.2118 13.4449 32.3161 14.9406 32.089L17.206 31.7447L18.2409 29.5501C18.9101 28.1275 20.1295 27.2767 21.5011 27.2767C22.8712 27.2767 24.0905 28.1264 24.7625 29.5497L25.7974 31.7451L28.062 32.089C29.5566 32.3161 30.7021 33.2114 31.1266 34.4837C31.1274 34.4868 31.1278 34.4896 31.1286 34.4928C31.1377 34.3497 31.1528 34.2046 31.1783 34.0583L31.3508 33.0547L30.6173 32.3419C29.638 31.3917 29.2822 30.1174 29.6659 28.9338C30.0495 27.7502 31.086 26.9264 32.4386 26.7312L33.4596 26.5833L33.9148 25.6641C34.0925 25.3047 34.3183 24.9937 34.5736 24.7258C33.1343 22.5331 31.0434 20.738 28.0333 19.7059C26.3464 21.3563 24.042 22.3781 21.501 22.3781C18.9155 22.3781 16.5721 21.3225 14.8777 19.62C11.8171 20.6151 9.7206 22.3967 8.29565 24.591C8.60776 24.8852 8.87891 25.243 9.08724 25.6641L9.08741 25.6641Z" fill="#166433"/>
<path d="M36.8635 37.0483L35.9483 37.5278C34.4991 38.2876 32.8208 37.9929 31.8718 36.8674C31.6003 36.5453 31.4047 36.1752 31.2794 35.7753C31.2158 36.6639 30.8115 37.5469 30.0879 38.284L28.3799 40.0266L28.3946 40.118H35.2227C36.4429 40.118 37.4988 39.1511 37.5224 37.9556C37.5259 37.7707 37.5279 37.5842 37.5291 37.3974L36.8635 37.0483Z" fill="#166433"/>
<path d="M14.6213 40.0264L12.9109 38.2818C12.1881 37.5466 11.7846 36.6639 11.7212 35.7754C11.5956 36.175 11.4004 36.5447 11.1288 36.8668C10.5416 37.5638 9.67286 37.9633 8.74533 37.9633C8.17439 37.9637 7.60466 37.817 7.0528 37.5279L6.13717 37.0481L5.47559 37.3947C5.47877 37.5824 5.48195 37.7701 5.48672 37.9553C5.51813 39.1509 6.57293 40.1178 7.79512 40.1178H14.6061L14.6213 40.0264Z" fill="#166433"/>
</svg>
