<svg width="50" height="50" viewBox="0 0 50 50" fill="none" xmlns="http://www.w3.org/2000/svg">
<path d="M48.5066 45.3596L43.237 40.2087C46.4676 35.4306 45.471 29.037 40.9344 25.4108C36.3981 21.7847 29.7939 22.1121 25.6523 26.162C21.5111 30.2118 21.1792 36.6731 24.8849 41.1123C28.591 45.5518 35.1262 46.5232 40.012 43.3602L45.2759 48.517C45.9347 49.161 47.0001 49.161 47.6589 48.517L48.5008 47.6925C48.6583 47.5407 48.7836 47.3595 48.8693 47.1594C48.955 46.9594 48.9995 46.7445 49 46.5273C49.0005 46.3101 48.9572 46.095 48.8725 45.8945C48.7878 45.694 48.6634 45.5122 48.5066 45.3596V45.3596ZM39.8807 36.9216C39.204 38.3071 38.0657 39.4216 36.6558 40.079C35.7396 40.5139 34.7368 40.7457 33.7236 40.7513C29.9428 40.7513 26.8789 37.7521 26.8789 34.0582C26.8789 30.3585 29.9433 27.3651 33.7236 27.3595C37.5039 27.3595 40.5679 30.3529 40.5741 34.0526C40.5679 35.0859 40.3101 36.0517 39.8807 36.9216ZM13.2577 36.148C12.2953 36.148 11.5221 35.3856 11.5164 34.4477C11.5164 33.5102 12.2954 32.7477 13.2577 32.7477H18.7449C18.8882 31.1492 19.2948 29.6185 19.925 28.2122H13.2577C12.2953 28.2122 11.5221 27.45 11.5164 26.512C11.5164 25.5746 12.2954 24.8117 13.2577 24.8117H22.0443C23.7669 22.7452 26.0256 21.1778 28.5799 20.2765H13.2579C12.2956 20.2765 11.5223 19.5143 11.5166 18.5764C11.5166 17.639 12.2958 16.8763 13.2579 16.8763H40.0239C40.9803 16.8763 41.7652 17.6386 41.7652 18.5764C41.7595 19.5139 40.9864 20.2709 40.0239 20.2765H38.7124C43.4381 21.9429 47.0004 25.8173 48.192 30.5954V6.15099C48.1977 3.3214 45.8262 1 42.9281 1H6.26964C3.37134 1 1 3.31576 1 6.15099V42.9482C1 45.7834 3.37134 48.0992 6.26964 48.0992H29.4618C23.8369 46.4894 19.6842 41.8186 18.8423 36.148H13.2577ZM13.2577 8.93548H40.0236C40.98 8.93548 41.7649 9.69768 41.7649 10.6356C41.7592 11.5731 40.9861 12.3303 40.0236 12.3358H13.2577C12.2953 12.3358 11.5164 11.5734 11.5164 10.6356C11.5162 9.70364 12.2953 8.93548 13.2577 8.93548Z" fill="#166433"/>
</svg>
