<svg width="50" height="50" viewBox="0 0 50 50" fill="none" xmlns="http://www.w3.org/2000/svg">
<path d="M21.2277 29.2174C18.3019 26.8016 14.5248 25.609 9.90019 25.632V19.8801L1 29.0027L9.90019 37.8568V32.8181C13.3782 32.799 15.9512 33.7691 17.6231 35.7363C19.4906 37.9335 20.5106 41.4652 20.6755 46.3429L24.5523 46.2202L28.4291 46.3429C28.433 46.2662 28.433 46.1895 28.4368 46.1128H28.4407V45.9786C28.6439 41.2888 29.6562 37.8798 31.4777 35.7363C33.1534 33.7653 35.7341 32.7951 39.2198 32.8181V37.8568L48.12 29.0027L39.2198 19.8801V25.6282C34.879 25.6052 31.286 26.6482 28.4407 28.7688V11.8964H33.8206L24.7019 3L15.8477 11.9002H21.2277V29.2174Z" fill="#166433"/>
</svg>
